<svg width="1920" height="1080" viewBox="0 0 1920 1080" fill="none" xmlns="http://www.w3.org/2000/svg">
<g clip-path="url(#clip0_1_98)">
<rect width="1920" height="6481" fill="#F4F4F4"/>
<g opacity="0.2">
<path d="M1918.1 1088.89H1909.7V1079H1908.37V1088.89H1899.97V1090.3H1908.37V1100.2H1909.7V1090.3H1918.1V1088.89Z" fill="#F4F4F4"/>
<path d="M1858.07 1088.89H1849.66V1079H1848.34V1088.89H1839.93V1090.3H1848.34V1100.2H1849.66V1090.3H1858.07V1088.89Z" fill="#F4F4F4"/>
<path d="M1798.03 1088.89H1789.63V1079H1788.31V1088.89H1779.9V1090.3H1788.31V1100.2H1789.63V1090.3H1798.03V1088.89Z" fill="#F4F4F4"/>
<path d="M1738 1088.89H1729.59V1079H1728.27V1088.89H1719.87V1090.3H1728.27V1100.2H1729.59V1090.3H1738V1088.89Z" fill="#F4F4F4"/>
<path d="M1677.96 1088.89H1669.56V1079H1668.24V1088.89H1659.83V1090.3H1668.24V1100.2H1669.56V1090.3H1677.96V1088.89Z" fill="#F4F4F4"/>
<path d="M1617.93 1088.89H1609.52V1079H1608.2V1088.89H1599.8V1090.3H1608.2V1100.2H1609.52V1090.3H1617.93V1088.89Z" fill="#F4F4F4"/>
<path d="M1557.89 1088.89H1549.49V1079H1548.17V1088.89H1539.76V1090.3H1548.17V1100.2H1549.49V1090.3H1557.89V1088.89Z" fill="#F4F4F4"/>
<path d="M1497.86 1088.89H1489.45V1079H1488.13V1088.89H1479.73V1090.3H1488.13V1100.2H1489.45V1090.3H1497.86V1088.89Z" fill="#F4F4F4"/>
<path d="M1437.82 1088.89H1429.42V1079H1428.1V1088.89H1419.69V1090.3H1428.1V1100.2H1429.42V1090.3H1437.82V1088.89Z" fill="#F4F4F4"/>
<path d="M1377.79 1088.89H1369.38V1079H1368.06V1088.89H1359.66V1090.3H1368.06V1100.2H1369.38V1090.3H1377.79V1088.89Z" fill="#F4F4F4"/>
<path d="M1317.75 1088.89H1309.35V1079H1308.03V1088.89H1299.62V1090.3H1308.03V1100.2H1309.35V1090.3H1317.75V1088.89Z" fill="#F4F4F4"/>
<path d="M1257.72 1088.89H1249.31V1079H1247.99V1088.89H1239.59V1090.3H1247.99V1100.2H1249.31V1090.3H1257.72V1088.89Z" fill="#F4F4F4"/>
<path d="M1197.68 1088.89H1189.28V1079H1187.96V1088.89H1179.55V1090.3H1187.96V1100.2H1189.28V1090.3H1197.68V1088.89Z" fill="#F4F4F4"/>
<path d="M1137.65 1088.89H1129.25V1079H1127.92V1088.89H1119.52V1090.3H1127.92V1100.2H1129.25V1090.3H1137.65V1088.89Z" fill="#F4F4F4"/>
<path d="M1077.62 1088.89H1069.21V1079H1067.89V1088.89H1059.48V1090.3H1067.89V1100.2H1069.21V1090.3H1077.62V1088.89Z" fill="#F4F4F4"/>
<path d="M1017.58 1088.89H1009.18V1079H1007.86V1088.89H999.45V1090.3H1007.86V1100.2H1009.18V1090.3H1017.58V1088.89Z" fill="#F4F4F4"/>
<path d="M957.546 1088.89H949.141V1079H947.82V1088.89H939.416V1090.3H947.82V1100.2H949.141V1090.3H957.546V1088.89Z" fill="#F4F4F4"/>
<path d="M897.511 1088.89H889.107V1079H887.786V1088.89H879.381V1090.3H887.786V1100.2H889.107V1090.3H897.511V1088.89Z" fill="#F4F4F4"/>
<path d="M837.477 1088.89H829.072V1079H827.751V1088.89H819.346V1090.3H827.751V1100.2H829.072V1090.3H837.477V1088.89Z" fill="#F4F4F4"/>
<path d="M777.442 1088.89H769.037V1079H767.716V1088.89H759.312V1090.3H767.716V1100.2H769.037V1090.3H777.442V1088.89Z" fill="#F4F4F4"/>
<path d="M717.408 1088.89H709.003V1079H707.682V1088.89H699.277V1090.3H707.682V1100.2H709.003V1090.3H717.408V1088.89Z" fill="#F4F4F4"/>
<path d="M657.373 1088.89H648.968V1079H647.647V1088.89H639.242V1090.3H647.647V1100.2H648.968V1090.3H657.373V1088.89Z" fill="#F4F4F4"/>
<path d="M597.338 1088.89H588.933V1079H587.613V1088.89H579.208V1090.3H587.613V1100.2H588.933V1090.3H597.338V1088.89Z" fill="#F4F4F4"/>
<path d="M537.304 1088.89H528.899V1079H527.578V1088.89H519.173V1090.3H527.578V1100.2H528.899V1090.3H537.304V1088.89Z" fill="#F4F4F4"/>
<path d="M477.269 1088.89H468.864V1079H467.543V1088.89H459.138V1090.3H467.543V1100.2H468.864V1090.3H477.269V1088.89Z" fill="#F4F4F4"/>
<path d="M417.234 1088.89H408.83V1079H407.509V1088.89H399.104V1090.3H407.509V1100.2H408.83V1090.3H417.234V1088.89Z" fill="#F4F4F4"/>
<path d="M357.2 1088.89H348.795V1079H347.474V1088.89H339.069V1090.3H347.474V1100.2H348.795V1090.3H357.2V1088.89Z" fill="#F4F4F4"/>
<path d="M297.165 1088.89H288.76V1079H287.44V1088.89H279.035V1090.3H287.44V1100.2H288.76V1090.3H297.165V1088.89Z" fill="#F4F4F4"/>
<path d="M237.131 1088.89H228.726V1079H227.405V1088.89H219V1090.3H227.405V1100.2H228.726V1090.3H237.131V1088.89Z" fill="#F4F4F4"/>
</g>
<g filter="url(#filter0_f_1_98)">
<ellipse cx="1809.78" cy="540.847" rx="821" ry="490.5" transform="rotate(179.556 1809.78 540.847)" fill="#5D46FF"/>
</g>
</g>
<defs>
<filter id="filter0_f_1_98" x="488.792" y="-449.68" width="2641.97" height="1981.05" filterUnits="userSpaceOnUse" color-interpolation-filters="sRGB">
<feFlood flood-opacity="0" result="BackgroundImageFix"/>
<feBlend mode="normal" in="SourceGraphic" in2="BackgroundImageFix" result="shape"/>
<feGaussianBlur stdDeviation="250" result="effect1_foregroundBlur_1_98"/>
</filter>
<clipPath id="clip0_1_98">
<rect width="1920" height="6481" fill="white"/>
</clipPath>
</defs>
</svg>
