<svg width="1700" height="1081" viewBox="0 0 1700 1081" fill="none" xmlns="http://www.w3.org/2000/svg">
<g opacity="0.2">
<path d="M1699.1 9.8915H1690.7V0H1689.37V9.8915H1680.97V11.3046H1689.37V21.1961H1690.7V11.3046H1699.1V9.8915Z" fill="#F4F4F4"/>
<path d="M1699.1 80.5451H1690.7V70.6536H1689.37V80.5451H1680.97V81.9581H1689.37V91.8496H1690.7V81.9581H1699.1V80.5451Z" fill="#F4F4F4"/>
<path d="M1699.1 151.199H1690.7V141.307H1689.37V151.199H1680.97V152.612H1689.37V162.503H1690.7V152.612H1699.1V151.199Z" fill="#F4F4F4"/>
<path d="M1699.1 221.852H1690.7V211.961H1689.37V221.852H1680.97V223.265H1689.37V233.157H1690.7V223.265H1699.1V221.852Z" fill="#F4F4F4"/>
<path d="M1699.1 292.506H1690.7V282.614H1689.37V292.506H1680.97V293.919H1689.37V303.81H1690.7V293.919H1699.1V292.506Z" fill="#F4F4F4"/>
<path d="M1699.1 363.159H1690.7V353.268H1689.37V363.159H1680.97V364.573H1689.37V374.464H1690.7V364.573H1699.1V363.159Z" fill="#F4F4F4"/>
<path d="M1699.1 433.813H1690.7V423.922H1689.37V433.813H1680.97V435.226H1689.37V445.118H1690.7V435.226H1699.1V433.813Z" fill="#F4F4F4"/>
<path d="M1699.1 504.467H1690.7V494.575H1689.37V504.467H1680.97V505.88H1689.37V515.771H1690.7V505.88H1699.1V504.467Z" fill="#F4F4F4"/>
<path d="M1699.1 575.12H1690.7V565.229H1689.37V575.12H1680.97V576.533H1689.37V586.425H1690.7V576.533H1699.1V575.12Z" fill="#F4F4F4"/>
<path d="M1699.1 645.774H1690.7V635.882H1689.37V645.774H1680.97V647.187H1689.37V657.078H1690.7V647.187H1699.1V645.774Z" fill="#F4F4F4"/>
<path d="M1699.1 716.427H1690.7V706.536H1689.37V716.427H1680.97V717.84H1689.37V727.732H1690.7V717.84H1699.1V716.427Z" fill="#F4F4F4"/>
<path d="M1699.1 787.081H1690.7V777.189H1689.37V787.081H1680.97V788.494H1689.37V798.386H1690.7V788.494H1699.1V787.081Z" fill="#F4F4F4"/>
<path d="M1699.1 857.735H1690.7V847.843H1689.37V857.735H1680.97V859.148H1689.37V869.039H1690.7V859.148H1699.1V857.735Z" fill="#F4F4F4"/>
<path d="M1699.1 928.388H1690.7V918.497H1689.37V928.388H1680.97V929.801H1689.37V939.693H1690.7V929.801H1699.1V928.388Z" fill="#F4F4F4"/>
<path d="M1699.1 999.042H1690.7V989.15H1689.37V999.042H1680.97V1000.45H1689.37V1010.35H1690.7V1000.45H1699.1V999.042Z" fill="#F4F4F4"/>
<path d="M1699.1 1069.7H1690.7V1059.8H1689.37V1069.7H1680.97V1071.11H1689.37V1081H1690.7V1071.11H1699.1V1069.7Z" fill="#F4F4F4"/>
<path d="M1639.07 9.8915H1630.66V0H1629.34V9.8915H1620.93V11.3046H1629.34V21.1961H1630.66V11.3046H1639.07V9.8915Z" fill="#F4F4F4"/>
<path d="M1639.07 80.5451H1630.66V70.6536H1629.34V80.5451H1620.93V81.9581H1629.34V91.8496H1630.66V81.9581H1639.07V80.5451Z" fill="#F4F4F4"/>
<path d="M1639.07 151.199H1630.66V141.307H1629.34V151.199H1620.93V152.612H1629.34V162.503H1630.66V152.612H1639.07V151.199Z" fill="#F4F4F4"/>
<path d="M1639.07 221.852H1630.66V211.961H1629.34V221.852H1620.93V223.265H1629.34V233.157H1630.66V223.265H1639.07V221.852Z" fill="#F4F4F4"/>
<path d="M1639.07 292.506H1630.66V282.614H1629.34V292.506H1620.93V293.919H1629.34V303.81H1630.66V293.919H1639.07V292.506Z" fill="#F4F4F4"/>
<path d="M1639.07 363.159H1630.66V353.268H1629.34V363.159H1620.93V364.573H1629.34V374.464H1630.66V364.573H1639.07V363.159Z" fill="#F4F4F4"/>
<path d="M1639.07 433.813H1630.66V423.922H1629.34V433.813H1620.93V435.226H1629.34V445.118H1630.66V435.226H1639.07V433.813Z" fill="#F4F4F4"/>
<path d="M1639.07 504.467H1630.66V494.575H1629.34V504.467H1620.93V505.88H1629.34V515.771H1630.66V505.88H1639.07V504.467Z" fill="#F4F4F4"/>
<path d="M1639.07 575.12H1630.66V565.229H1629.34V575.12H1620.93V576.533H1629.34V586.425H1630.66V576.533H1639.07V575.12Z" fill="#F4F4F4"/>
<path d="M1639.07 645.774H1630.66V635.882H1629.34V645.774H1620.93V647.187H1629.34V657.078H1630.66V647.187H1639.07V645.774Z" fill="#F4F4F4"/>
<path d="M1639.07 716.427H1630.66V706.536H1629.34V716.427H1620.93V717.84H1629.34V727.732H1630.66V717.84H1639.07V716.427Z" fill="#F4F4F4"/>
<path d="M1639.07 787.081H1630.66V777.189H1629.34V787.081H1620.93V788.494H1629.34V798.386H1630.66V788.494H1639.07V787.081Z" fill="#F4F4F4"/>
<path d="M1639.07 857.735H1630.66V847.843H1629.34V857.735H1620.93V859.148H1629.34V869.039H1630.66V859.148H1639.07V857.735Z" fill="#F4F4F4"/>
<path d="M1639.07 928.388H1630.66V918.497H1629.34V928.388H1620.93V929.801H1629.34V939.693H1630.66V929.801H1639.07V928.388Z" fill="#F4F4F4"/>
<path d="M1639.07 999.042H1630.66V989.15H1629.34V999.042H1620.93V1000.45H1629.34V1010.35H1630.66V1000.45H1639.07V999.042Z" fill="#F4F4F4"/>
<path d="M1639.07 1069.7H1630.66V1059.8H1629.34V1069.7H1620.93V1071.11H1629.34V1081H1630.66V1071.11H1639.07V1069.7Z" fill="#F4F4F4"/>
<path d="M1579.03 9.8915H1570.63V0H1569.31V9.8915H1560.9V11.3046H1569.31V21.1961H1570.63V11.3046H1579.03V9.8915Z" fill="#F4F4F4"/>
<path d="M1579.03 80.5451H1570.63V70.6536H1569.31V80.5451H1560.9V81.9581H1569.31V91.8496H1570.63V81.9581H1579.03V80.5451Z" fill="#F4F4F4"/>
<path d="M1579.03 151.199H1570.63V141.307H1569.31V151.199H1560.9V152.612H1569.31V162.503H1570.63V152.612H1579.03V151.199Z" fill="#F4F4F4"/>
<path d="M1579.03 221.852H1570.63V211.961H1569.31V221.852H1560.9V223.265H1569.31V233.157H1570.63V223.265H1579.03V221.852Z" fill="#F4F4F4"/>
<path d="M1579.03 292.506H1570.63V282.614H1569.31V292.506H1560.9V293.919H1569.31V303.81H1570.63V293.919H1579.03V292.506Z" fill="#F4F4F4"/>
<path d="M1579.03 363.159H1570.63V353.268H1569.31V363.159H1560.9V364.573H1569.31V374.464H1570.63V364.573H1579.03V363.159Z" fill="#F4F4F4"/>
<path d="M1579.03 433.813H1570.63V423.922H1569.31V433.813H1560.9V435.226H1569.31V445.118H1570.63V435.226H1579.03V433.813Z" fill="#F4F4F4"/>
<path d="M1579.03 504.467H1570.63V494.575H1569.31V504.467H1560.9V505.88H1569.31V515.771H1570.63V505.88H1579.03V504.467Z" fill="#F4F4F4"/>
<path d="M1579.03 575.12H1570.63V565.229H1569.31V575.12H1560.9V576.533H1569.31V586.425H1570.63V576.533H1579.03V575.12Z" fill="#F4F4F4"/>
<path d="M1579.03 645.774H1570.63V635.882H1569.31V645.774H1560.9V647.187H1569.31V657.078H1570.63V647.187H1579.03V645.774Z" fill="#F4F4F4"/>
<path d="M1579.03 716.427H1570.63V706.536H1569.31V716.427H1560.9V717.84H1569.31V727.732H1570.63V717.84H1579.03V716.427Z" fill="#F4F4F4"/>
<path d="M1579.03 787.081H1570.63V777.189H1569.31V787.081H1560.9V788.494H1569.31V798.386H1570.63V788.494H1579.03V787.081Z" fill="#F4F4F4"/>
<path d="M1579.03 857.735H1570.63V847.843H1569.31V857.735H1560.9V859.148H1569.31V869.039H1570.63V859.148H1579.03V857.735Z" fill="#F4F4F4"/>
<path d="M1579.03 928.388H1570.63V918.497H1569.31V928.388H1560.9V929.801H1569.31V939.693H1570.63V929.801H1579.03V928.388Z" fill="#F4F4F4"/>
<path d="M1579.03 999.042H1570.63V989.15H1569.31V999.042H1560.9V1000.45H1569.31V1010.35H1570.63V1000.45H1579.03V999.042Z" fill="#F4F4F4"/>
<path d="M1579.03 1069.7H1570.63V1059.8H1569.31V1069.7H1560.9V1071.11H1569.31V1081H1570.63V1071.11H1579.03V1069.7Z" fill="#F4F4F4"/>
<path d="M1519 9.8915H1510.59V0H1509.27V9.8915H1500.87V11.3046H1509.27V21.1961H1510.59V11.3046H1519V9.8915Z" fill="#F4F4F4"/>
<path d="M1519 80.5451H1510.59V70.6536H1509.27V80.5451H1500.87V81.9581H1509.27V91.8496H1510.59V81.9581H1519V80.5451Z" fill="#F4F4F4"/>
<path d="M1519 151.199H1510.59V141.307H1509.27V151.199H1500.87V152.612H1509.27V162.503H1510.59V152.612H1519V151.199Z" fill="#F4F4F4"/>
<path d="M1519 221.852H1510.59V211.961H1509.27V221.852H1500.87V223.265H1509.27V233.157H1510.59V223.265H1519V221.852Z" fill="#F4F4F4"/>
<path d="M1519 292.506H1510.59V282.614H1509.27V292.506H1500.87V293.919H1509.27V303.81H1510.59V293.919H1519V292.506Z" fill="#F4F4F4"/>
<path d="M1519 363.159H1510.59V353.268H1509.27V363.159H1500.87V364.573H1509.27V374.464H1510.59V364.573H1519V363.159Z" fill="#F4F4F4"/>
<path d="M1519 433.813H1510.59V423.922H1509.27V433.813H1500.87V435.226H1509.27V445.118H1510.59V435.226H1519V433.813Z" fill="#F4F4F4"/>
<path d="M1519 504.467H1510.59V494.575H1509.27V504.467H1500.87V505.88H1509.27V515.771H1510.59V505.88H1519V504.467Z" fill="#F4F4F4"/>
<path d="M1519 575.12H1510.59V565.229H1509.27V575.12H1500.87V576.533H1509.27V586.425H1510.59V576.533H1519V575.12Z" fill="#F4F4F4"/>
<path d="M1519 645.774H1510.59V635.882H1509.27V645.774H1500.87V647.187H1509.27V657.078H1510.59V647.187H1519V645.774Z" fill="#F4F4F4"/>
<path d="M1519 716.427H1510.59V706.536H1509.27V716.427H1500.87V717.84H1509.27V727.732H1510.59V717.84H1519V716.427Z" fill="#F4F4F4"/>
<path d="M1519 787.081H1510.59V777.189H1509.27V787.081H1500.87V788.494H1509.27V798.386H1510.59V788.494H1519V787.081Z" fill="#F4F4F4"/>
<path d="M1519 857.735H1510.59V847.843H1509.27V857.735H1500.87V859.148H1509.27V869.039H1510.59V859.148H1519V857.735Z" fill="#F4F4F4"/>
<path d="M1519 928.388H1510.59V918.497H1509.27V928.388H1500.87V929.801H1509.27V939.693H1510.59V929.801H1519V928.388Z" fill="#F4F4F4"/>
<path d="M1519 999.042H1510.59V989.15H1509.27V999.042H1500.87V1000.45H1509.27V1010.35H1510.59V1000.45H1519V999.042Z" fill="#F4F4F4"/>
<path d="M1519 1069.7H1510.59V1059.8H1509.27V1069.7H1500.87V1071.11H1509.27V1081H1510.59V1071.11H1519V1069.7Z" fill="#F4F4F4"/>
<path d="M1458.96 9.8915H1450.56V0H1449.24V9.8915H1440.83V11.3046H1449.24V21.1961H1450.56V11.3046H1458.96V9.8915Z" fill="#F4F4F4"/>
<path d="M1458.96 80.5451H1450.56V70.6536H1449.24V80.5451H1440.83V81.9581H1449.24V91.8496H1450.56V81.9581H1458.96V80.5451Z" fill="#F4F4F4"/>
<path d="M1458.96 151.199H1450.56V141.307H1449.24V151.199H1440.83V152.612H1449.24V162.503H1450.56V152.612H1458.96V151.199Z" fill="#F4F4F4"/>
<path d="M1458.96 221.852H1450.56V211.961H1449.24V221.852H1440.83V223.265H1449.24V233.157H1450.56V223.265H1458.96V221.852Z" fill="#F4F4F4"/>
<path d="M1458.96 292.506H1450.56V282.614H1449.24V292.506H1440.83V293.919H1449.24V303.81H1450.56V293.919H1458.96V292.506Z" fill="#F4F4F4"/>
<path d="M1458.96 363.159H1450.56V353.268H1449.24V363.159H1440.83V364.573H1449.24V374.464H1450.56V364.573H1458.96V363.159Z" fill="#F4F4F4"/>
<path d="M1458.96 433.813H1450.56V423.922H1449.24V433.813H1440.83V435.226H1449.24V445.118H1450.56V435.226H1458.96V433.813Z" fill="#F4F4F4"/>
<path d="M1458.96 504.467H1450.56V494.575H1449.24V504.467H1440.83V505.88H1449.24V515.771H1450.56V505.88H1458.96V504.467Z" fill="#F4F4F4"/>
<path d="M1458.96 575.12H1450.56V565.229H1449.24V575.12H1440.83V576.533H1449.24V586.425H1450.56V576.533H1458.96V575.12Z" fill="#F4F4F4"/>
<path d="M1458.96 645.774H1450.56V635.882H1449.24V645.774H1440.83V647.187H1449.24V657.078H1450.56V647.187H1458.96V645.774Z" fill="#F4F4F4"/>
<path d="M1458.96 716.427H1450.56V706.536H1449.24V716.427H1440.83V717.84H1449.24V727.732H1450.56V717.84H1458.96V716.427Z" fill="#F4F4F4"/>
<path d="M1458.96 787.081H1450.56V777.189H1449.24V787.081H1440.83V788.494H1449.24V798.386H1450.56V788.494H1458.96V787.081Z" fill="#F4F4F4"/>
<path d="M1458.96 857.735H1450.56V847.843H1449.24V857.735H1440.83V859.148H1449.24V869.039H1450.56V859.148H1458.96V857.735Z" fill="#F4F4F4"/>
<path d="M1458.96 928.388H1450.56V918.497H1449.24V928.388H1440.83V929.801H1449.24V939.693H1450.56V929.801H1458.96V928.388Z" fill="#F4F4F4"/>
<path d="M1458.96 999.042H1450.56V989.15H1449.24V999.042H1440.83V1000.45H1449.24V1010.35H1450.56V1000.45H1458.96V999.042Z" fill="#F4F4F4"/>
<path d="M1458.96 1069.7H1450.56V1059.8H1449.24V1069.7H1440.83V1071.11H1449.24V1081H1450.56V1071.11H1458.96V1069.7Z" fill="#F4F4F4"/>
<path d="M1398.93 9.8915H1390.52V0H1389.2V9.8915H1380.8V11.3046H1389.2V21.1961H1390.52V11.3046H1398.93V9.8915Z" fill="#F4F4F4"/>
<path d="M1398.93 80.5451H1390.52V70.6536H1389.2V80.5451H1380.8V81.9581H1389.2V91.8496H1390.52V81.9581H1398.93V80.5451Z" fill="#F4F4F4"/>
<path d="M1398.93 151.199H1390.52V141.307H1389.2V151.199H1380.8V152.612H1389.2V162.503H1390.52V152.612H1398.93V151.199Z" fill="#F4F4F4"/>
<path d="M1398.93 221.852H1390.52V211.961H1389.2V221.852H1380.8V223.265H1389.2V233.157H1390.52V223.265H1398.93V221.852Z" fill="#F4F4F4"/>
<path d="M1398.93 292.506H1390.52V282.614H1389.2V292.506H1380.8V293.919H1389.2V303.81H1390.52V293.919H1398.93V292.506Z" fill="#F4F4F4"/>
<path d="M1398.93 363.159H1390.52V353.268H1389.2V363.159H1380.8V364.573H1389.2V374.464H1390.52V364.573H1398.93V363.159Z" fill="#F4F4F4"/>
<path d="M1398.93 433.813H1390.52V423.922H1389.2V433.813H1380.8V435.226H1389.2V445.118H1390.52V435.226H1398.93V433.813Z" fill="#F4F4F4"/>
<path d="M1398.93 504.467H1390.52V494.575H1389.2V504.467H1380.8V505.88H1389.2V515.771H1390.52V505.88H1398.93V504.467Z" fill="#F4F4F4"/>
<path d="M1398.93 575.12H1390.52V565.229H1389.2V575.12H1380.8V576.533H1389.2V586.425H1390.52V576.533H1398.93V575.12Z" fill="#F4F4F4"/>
<path d="M1398.93 645.774H1390.52V635.882H1389.2V645.774H1380.8V647.187H1389.2V657.078H1390.52V647.187H1398.93V645.774Z" fill="#F4F4F4"/>
<path d="M1398.93 716.427H1390.52V706.536H1389.2V716.427H1380.8V717.84H1389.2V727.732H1390.52V717.84H1398.93V716.427Z" fill="#F4F4F4"/>
<path d="M1398.93 787.081H1390.52V777.189H1389.2V787.081H1380.8V788.494H1389.2V798.386H1390.52V788.494H1398.93V787.081Z" fill="#F4F4F4"/>
<path d="M1398.93 857.735H1390.52V847.843H1389.2V857.735H1380.8V859.148H1389.2V869.039H1390.52V859.148H1398.93V857.735Z" fill="#F4F4F4"/>
<path d="M1398.93 928.388H1390.52V918.497H1389.2V928.388H1380.8V929.801H1389.2V939.693H1390.52V929.801H1398.93V928.388Z" fill="#F4F4F4"/>
<path d="M1398.93 999.042H1390.52V989.15H1389.2V999.042H1380.8V1000.45H1389.2V1010.35H1390.52V1000.45H1398.93V999.042Z" fill="#F4F4F4"/>
<path d="M1398.93 1069.7H1390.52V1059.8H1389.2V1069.7H1380.8V1071.11H1389.2V1081H1390.52V1071.11H1398.93V1069.7Z" fill="#F4F4F4"/>
<path d="M1338.89 9.8915H1330.49V0H1329.17V9.8915H1320.76V11.3046H1329.17V21.1961H1330.49V11.3046H1338.89V9.8915Z" fill="#F4F4F4"/>
<path d="M1338.89 80.5451H1330.49V70.6536H1329.17V80.5451H1320.76V81.9581H1329.17V91.8496H1330.49V81.9581H1338.89V80.5451Z" fill="#F4F4F4"/>
<path d="M1338.89 151.199H1330.49V141.307H1329.17V151.199H1320.76V152.612H1329.17V162.503H1330.49V152.612H1338.89V151.199Z" fill="#F4F4F4"/>
<path d="M1338.89 221.852H1330.49V211.961H1329.17V221.852H1320.76V223.265H1329.17V233.157H1330.49V223.265H1338.89V221.852Z" fill="#F4F4F4"/>
<path d="M1338.89 292.506H1330.49V282.614H1329.17V292.506H1320.76V293.919H1329.17V303.81H1330.49V293.919H1338.89V292.506Z" fill="#F4F4F4"/>
<path d="M1338.89 363.159H1330.49V353.268H1329.17V363.159H1320.76V364.573H1329.17V374.464H1330.49V364.573H1338.89V363.159Z" fill="#F4F4F4"/>
<path d="M1338.89 433.813H1330.49V423.922H1329.17V433.813H1320.76V435.226H1329.17V445.118H1330.49V435.226H1338.89V433.813Z" fill="#F4F4F4"/>
<path d="M1338.89 504.467H1330.49V494.575H1329.17V504.467H1320.76V505.88H1329.17V515.771H1330.49V505.88H1338.89V504.467Z" fill="#F4F4F4"/>
<path d="M1338.89 575.12H1330.49V565.229H1329.17V575.12H1320.76V576.533H1329.17V586.425H1330.49V576.533H1338.89V575.12Z" fill="#F4F4F4"/>
<path d="M1338.89 645.774H1330.49V635.882H1329.17V645.774H1320.76V647.187H1329.17V657.078H1330.49V647.187H1338.89V645.774Z" fill="#F4F4F4"/>
<path d="M1338.89 716.427H1330.49V706.536H1329.17V716.427H1320.76V717.84H1329.17V727.732H1330.49V717.84H1338.89V716.427Z" fill="#F4F4F4"/>
<path d="M1338.89 787.081H1330.49V777.189H1329.17V787.081H1320.76V788.494H1329.17V798.386H1330.49V788.494H1338.89V787.081Z" fill="#F4F4F4"/>
<path d="M1338.89 857.735H1330.49V847.843H1329.17V857.735H1320.76V859.148H1329.17V869.039H1330.49V859.148H1338.89V857.735Z" fill="#F4F4F4"/>
<path d="M1338.89 928.388H1330.49V918.497H1329.17V928.388H1320.76V929.801H1329.17V939.693H1330.49V929.801H1338.89V928.388Z" fill="#F4F4F4"/>
<path d="M1338.89 999.042H1330.49V989.15H1329.17V999.042H1320.76V1000.45H1329.17V1010.35H1330.49V1000.45H1338.89V999.042Z" fill="#F4F4F4"/>
<path d="M1338.89 1069.7H1330.49V1059.8H1329.17V1069.7H1320.76V1071.11H1329.17V1081H1330.49V1071.11H1338.89V1069.7Z" fill="#F4F4F4"/>
<path d="M1278.86 9.8915H1270.45V0H1269.13V9.8915H1260.73V11.3046H1269.13V21.1961H1270.45V11.3046H1278.86V9.8915Z" fill="#F4F4F4"/>
<path d="M1278.86 80.5451H1270.45V70.6536H1269.13V80.5451H1260.73V81.9581H1269.13V91.8496H1270.45V81.9581H1278.86V80.5451Z" fill="#F4F4F4"/>
<path d="M1278.86 151.199H1270.45V141.307H1269.13V151.199H1260.73V152.612H1269.13V162.503H1270.45V152.612H1278.86V151.199Z" fill="#F4F4F4"/>
<path d="M1278.86 221.852H1270.45V211.961H1269.13V221.852H1260.73V223.265H1269.13V233.157H1270.45V223.265H1278.86V221.852Z" fill="#F4F4F4"/>
<path d="M1278.86 292.506H1270.45V282.614H1269.13V292.506H1260.73V293.919H1269.13V303.81H1270.45V293.919H1278.86V292.506Z" fill="#F4F4F4"/>
<path d="M1278.86 363.159H1270.45V353.268H1269.13V363.159H1260.73V364.573H1269.13V374.464H1270.45V364.573H1278.86V363.159Z" fill="#F4F4F4"/>
<path d="M1278.86 433.813H1270.45V423.922H1269.13V433.813H1260.73V435.226H1269.13V445.118H1270.45V435.226H1278.86V433.813Z" fill="#F4F4F4"/>
<path d="M1278.86 504.467H1270.45V494.575H1269.13V504.467H1260.73V505.88H1269.13V515.771H1270.45V505.88H1278.86V504.467Z" fill="#F4F4F4"/>
<path d="M1278.86 575.12H1270.45V565.229H1269.13V575.12H1260.73V576.533H1269.13V586.425H1270.45V576.533H1278.86V575.12Z" fill="#F4F4F4"/>
<path d="M1278.86 645.774H1270.45V635.882H1269.13V645.774H1260.73V647.187H1269.13V657.078H1270.45V647.187H1278.86V645.774Z" fill="#F4F4F4"/>
<path d="M1278.86 716.427H1270.45V706.536H1269.13V716.427H1260.73V717.84H1269.13V727.732H1270.45V717.84H1278.86V716.427Z" fill="#F4F4F4"/>
<path d="M1278.86 787.081H1270.45V777.189H1269.13V787.081H1260.73V788.494H1269.13V798.386H1270.45V788.494H1278.86V787.081Z" fill="#F4F4F4"/>
<path d="M1278.86 857.735H1270.45V847.843H1269.13V857.735H1260.73V859.148H1269.13V869.039H1270.45V859.148H1278.86V857.735Z" fill="#F4F4F4"/>
<path d="M1278.86 928.388H1270.45V918.497H1269.13V928.388H1260.73V929.801H1269.13V939.693H1270.45V929.801H1278.86V928.388Z" fill="#F4F4F4"/>
<path d="M1278.86 999.042H1270.45V989.15H1269.13V999.042H1260.73V1000.45H1269.13V1010.35H1270.45V1000.45H1278.86V999.042Z" fill="#F4F4F4"/>
<path d="M1278.86 1069.7H1270.45V1059.8H1269.13V1069.7H1260.73V1071.11H1269.13V1081H1270.45V1071.11H1278.86V1069.7Z" fill="#F4F4F4"/>
<path d="M1218.82 9.8915H1210.42V0H1209.1V9.8915H1200.69V11.3046H1209.1V21.1961H1210.42V11.3046H1218.82V9.8915Z" fill="#F4F4F4"/>
<path d="M1218.82 80.5451H1210.42V70.6536H1209.1V80.5451H1200.69V81.9581H1209.1V91.8496H1210.42V81.9581H1218.82V80.5451Z" fill="#F4F4F4"/>
<path d="M1218.82 151.199H1210.42V141.307H1209.1V151.199H1200.69V152.612H1209.1V162.503H1210.42V152.612H1218.82V151.199Z" fill="#F4F4F4"/>
<path d="M1218.82 221.852H1210.42V211.961H1209.1V221.852H1200.69V223.265H1209.1V233.157H1210.42V223.265H1218.82V221.852Z" fill="#F4F4F4"/>
<path d="M1218.82 292.506H1210.42V282.614H1209.1V292.506H1200.69V293.919H1209.1V303.81H1210.42V293.919H1218.82V292.506Z" fill="#F4F4F4"/>
<path d="M1218.82 363.159H1210.42V353.268H1209.1V363.159H1200.69V364.573H1209.1V374.464H1210.42V364.573H1218.82V363.159Z" fill="#F4F4F4"/>
<path d="M1218.82 433.813H1210.42V423.922H1209.1V433.813H1200.69V435.226H1209.1V445.118H1210.42V435.226H1218.82V433.813Z" fill="#F4F4F4"/>
<path d="M1218.82 504.467H1210.42V494.575H1209.1V504.467H1200.69V505.88H1209.1V515.771H1210.42V505.88H1218.82V504.467Z" fill="#F4F4F4"/>
<path d="M1218.82 575.12H1210.42V565.229H1209.1V575.12H1200.69V576.533H1209.1V586.425H1210.42V576.533H1218.82V575.12Z" fill="#F4F4F4"/>
<path d="M1218.82 645.774H1210.42V635.882H1209.1V645.774H1200.69V647.187H1209.1V657.078H1210.42V647.187H1218.82V645.774Z" fill="#F4F4F4"/>
<path d="M1218.82 716.427H1210.42V706.536H1209.1V716.427H1200.69V717.84H1209.1V727.732H1210.42V717.84H1218.82V716.427Z" fill="#F4F4F4"/>
<path d="M1218.82 787.081H1210.42V777.189H1209.1V787.081H1200.69V788.494H1209.1V798.386H1210.42V788.494H1218.82V787.081Z" fill="#F4F4F4"/>
<path d="M1218.82 857.735H1210.42V847.843H1209.1V857.735H1200.69V859.148H1209.1V869.039H1210.42V859.148H1218.82V857.735Z" fill="#F4F4F4"/>
<path d="M1218.82 928.388H1210.42V918.497H1209.1V928.388H1200.69V929.801H1209.1V939.693H1210.42V929.801H1218.82V928.388Z" fill="#F4F4F4"/>
<path d="M1218.82 999.042H1210.42V989.15H1209.1V999.042H1200.69V1000.45H1209.1V1010.35H1210.42V1000.45H1218.82V999.042Z" fill="#F4F4F4"/>
<path d="M1218.82 1069.7H1210.42V1059.8H1209.1V1069.7H1200.69V1071.11H1209.1V1081H1210.42V1071.11H1218.82V1069.7Z" fill="#F4F4F4"/>
<path d="M1158.79 9.8915H1150.38V0H1149.06V9.8915H1140.66V11.3046H1149.06V21.1961H1150.38V11.3046H1158.79V9.8915Z" fill="#F4F4F4"/>
<path d="M1158.79 80.5451H1150.38V70.6536H1149.06V80.5451H1140.66V81.9581H1149.06V91.8496H1150.38V81.9581H1158.79V80.5451Z" fill="#F4F4F4"/>
<path d="M1158.79 151.199H1150.38V141.307H1149.06V151.199H1140.66V152.612H1149.06V162.503H1150.38V152.612H1158.79V151.199Z" fill="#F4F4F4"/>
<path d="M1158.79 221.852H1150.38V211.961H1149.06V221.852H1140.66V223.265H1149.06V233.157H1150.38V223.265H1158.79V221.852Z" fill="#F4F4F4"/>
<path d="M1158.79 292.506H1150.38V282.614H1149.06V292.506H1140.66V293.919H1149.06V303.81H1150.38V293.919H1158.79V292.506Z" fill="#F4F4F4"/>
<path d="M1158.79 363.159H1150.38V353.268H1149.06V363.159H1140.66V364.573H1149.06V374.464H1150.38V364.573H1158.79V363.159Z" fill="#F4F4F4"/>
<path d="M1158.79 433.813H1150.38V423.922H1149.06V433.813H1140.66V435.226H1149.06V445.118H1150.38V435.226H1158.79V433.813Z" fill="#F4F4F4"/>
<path d="M1158.79 504.467H1150.38V494.575H1149.06V504.467H1140.66V505.88H1149.06V515.771H1150.38V505.88H1158.79V504.467Z" fill="#F4F4F4"/>
<path d="M1158.79 575.12H1150.38V565.229H1149.06V575.12H1140.66V576.533H1149.06V586.425H1150.38V576.533H1158.79V575.12Z" fill="#F4F4F4"/>
<path d="M1158.79 645.774H1150.38V635.882H1149.06V645.774H1140.66V647.187H1149.06V657.078H1150.38V647.187H1158.79V645.774Z" fill="#F4F4F4"/>
<path d="M1158.79 716.427H1150.38V706.536H1149.06V716.427H1140.66V717.84H1149.06V727.732H1150.38V717.84H1158.79V716.427Z" fill="#F4F4F4"/>
<path d="M1158.79 787.081H1150.38V777.189H1149.06V787.081H1140.66V788.494H1149.06V798.386H1150.38V788.494H1158.79V787.081Z" fill="#F4F4F4"/>
<path d="M1158.79 857.735H1150.38V847.843H1149.06V857.735H1140.66V859.148H1149.06V869.039H1150.38V859.148H1158.79V857.735Z" fill="#F4F4F4"/>
<path d="M1158.79 928.388H1150.38V918.497H1149.06V928.388H1140.66V929.801H1149.06V939.693H1150.38V929.801H1158.79V928.388Z" fill="#F4F4F4"/>
<path d="M1158.79 999.042H1150.38V989.15H1149.06V999.042H1140.66V1000.45H1149.06V1010.35H1150.38V1000.45H1158.79V999.042Z" fill="#F4F4F4"/>
<path d="M1158.79 1069.7H1150.38V1059.8H1149.06V1069.7H1140.66V1071.11H1149.06V1081H1150.38V1071.11H1158.79V1069.7Z" fill="#F4F4F4"/>
<path d="M1098.75 9.8915H1090.35V0H1089.03V9.8915H1080.62V11.3046H1089.03V21.1961H1090.35V11.3046H1098.75V9.8915Z" fill="#F4F4F4"/>
<path d="M1098.75 80.5451H1090.35V70.6536H1089.03V80.5451H1080.62V81.9581H1089.03V91.8496H1090.35V81.9581H1098.75V80.5451Z" fill="#F4F4F4"/>
<path d="M1098.75 151.199H1090.35V141.307H1089.03V151.199H1080.62V152.612H1089.03V162.503H1090.35V152.612H1098.75V151.199Z" fill="#F4F4F4"/>
<path d="M1098.75 221.852H1090.35V211.961H1089.03V221.852H1080.62V223.265H1089.03V233.157H1090.35V223.265H1098.75V221.852Z" fill="#F4F4F4"/>
<path d="M1098.75 292.506H1090.35V282.614H1089.03V292.506H1080.62V293.919H1089.03V303.81H1090.35V293.919H1098.75V292.506Z" fill="#F4F4F4"/>
<path d="M1098.75 363.159H1090.35V353.268H1089.03V363.159H1080.62V364.573H1089.03V374.464H1090.35V364.573H1098.75V363.159Z" fill="#F4F4F4"/>
<path d="M1098.75 433.813H1090.35V423.922H1089.03V433.813H1080.62V435.226H1089.03V445.118H1090.35V435.226H1098.75V433.813Z" fill="#F4F4F4"/>
<path d="M1098.75 504.467H1090.35V494.575H1089.03V504.467H1080.62V505.88H1089.03V515.771H1090.35V505.88H1098.75V504.467Z" fill="#F4F4F4"/>
<path d="M1098.75 575.12H1090.35V565.229H1089.03V575.12H1080.62V576.533H1089.03V586.425H1090.35V576.533H1098.75V575.12Z" fill="#F4F4F4"/>
<path d="M1098.75 645.774H1090.35V635.882H1089.03V645.774H1080.62V647.187H1089.03V657.078H1090.35V647.187H1098.75V645.774Z" fill="#F4F4F4"/>
<path d="M1098.75 716.427H1090.35V706.536H1089.03V716.427H1080.62V717.84H1089.03V727.732H1090.35V717.84H1098.75V716.427Z" fill="#F4F4F4"/>
<path d="M1098.75 787.081H1090.35V777.189H1089.03V787.081H1080.62V788.494H1089.03V798.386H1090.35V788.494H1098.75V787.081Z" fill="#F4F4F4"/>
<path d="M1098.75 857.735H1090.35V847.843H1089.03V857.735H1080.62V859.148H1089.03V869.039H1090.35V859.148H1098.75V857.735Z" fill="#F4F4F4"/>
<path d="M1098.75 928.388H1090.35V918.497H1089.03V928.388H1080.62V929.801H1089.03V939.693H1090.35V929.801H1098.75V928.388Z" fill="#F4F4F4"/>
<path d="M1098.75 999.042H1090.35V989.15H1089.03V999.042H1080.62V1000.45H1089.03V1010.35H1090.35V1000.45H1098.75V999.042Z" fill="#F4F4F4"/>
<path d="M1098.75 1069.7H1090.35V1059.8H1089.03V1069.7H1080.62V1071.11H1089.03V1081H1090.35V1071.11H1098.75V1069.7Z" fill="#F4F4F4"/>
<path d="M1038.72 9.8915H1030.31V0H1028.99V9.8915H1020.59V11.3046H1028.99V21.1961H1030.31V11.3046H1038.72V9.8915Z" fill="#F4F4F4"/>
<path d="M1038.72 80.5451H1030.31V70.6536H1028.99V80.5451H1020.59V81.9581H1028.99V91.8496H1030.31V81.9581H1038.72V80.5451Z" fill="#F4F4F4"/>
<path d="M1038.72 151.199H1030.31V141.307H1028.99V151.199H1020.59V152.612H1028.99V162.503H1030.31V152.612H1038.72V151.199Z" fill="#F4F4F4"/>
<path d="M1038.72 221.852H1030.31V211.961H1028.99V221.852H1020.59V223.265H1028.99V233.157H1030.31V223.265H1038.72V221.852Z" fill="#F4F4F4"/>
<path d="M1038.72 292.506H1030.31V282.614H1028.99V292.506H1020.59V293.919H1028.99V303.81H1030.31V293.919H1038.72V292.506Z" fill="#F4F4F4"/>
<path d="M1038.72 363.159H1030.31V353.268H1028.99V363.159H1020.59V364.573H1028.99V374.464H1030.31V364.573H1038.72V363.159Z" fill="#F4F4F4"/>
<path d="M1038.72 433.813H1030.31V423.922H1028.99V433.813H1020.59V435.226H1028.99V445.118H1030.31V435.226H1038.72V433.813Z" fill="#F4F4F4"/>
<path d="M1038.72 504.467H1030.31V494.575H1028.99V504.467H1020.59V505.88H1028.99V515.771H1030.31V505.88H1038.72V504.467Z" fill="#F4F4F4"/>
<path d="M1038.72 575.12H1030.31V565.229H1028.99V575.12H1020.59V576.533H1028.99V586.425H1030.31V576.533H1038.72V575.12Z" fill="#F4F4F4"/>
<path d="M1038.72 645.774H1030.31V635.882H1028.99V645.774H1020.59V647.187H1028.99V657.078H1030.31V647.187H1038.72V645.774Z" fill="#F4F4F4"/>
<path d="M1038.72 716.427H1030.31V706.536H1028.99V716.427H1020.59V717.84H1028.99V727.732H1030.31V717.84H1038.72V716.427Z" fill="#F4F4F4"/>
<path d="M1038.72 787.081H1030.31V777.189H1028.99V787.081H1020.59V788.494H1028.99V798.386H1030.31V788.494H1038.72V787.081Z" fill="#F4F4F4"/>
<path d="M1038.72 857.735H1030.31V847.843H1028.99V857.735H1020.59V859.148H1028.99V869.039H1030.31V859.148H1038.72V857.735Z" fill="#F4F4F4"/>
<path d="M1038.72 928.388H1030.31V918.497H1028.99V928.388H1020.59V929.801H1028.99V939.693H1030.31V929.801H1038.72V928.388Z" fill="#F4F4F4"/>
<path d="M1038.72 999.042H1030.31V989.15H1028.99V999.042H1020.59V1000.45H1028.99V1010.35H1030.31V1000.45H1038.72V999.042Z" fill="#F4F4F4"/>
<path d="M1038.72 1069.7H1030.31V1059.8H1028.99V1069.7H1020.59V1071.11H1028.99V1081H1030.31V1071.11H1038.72V1069.7Z" fill="#F4F4F4"/>
<path d="M978.685 9.8915H970.28V0H968.959V9.8915H960.554V11.3046H968.959V21.1961H970.28V11.3046H978.685V9.8915Z" fill="#F4F4F4"/>
<path d="M978.685 80.5451H970.28V70.6536H968.959V80.5451H960.554V81.9581H968.959V91.8496H970.28V81.9581H978.685V80.5451Z" fill="#F4F4F4"/>
<path d="M978.685 151.199H970.28V141.307H968.959V151.199H960.554V152.612H968.959V162.503H970.28V152.612H978.685V151.199Z" fill="#F4F4F4"/>
<path d="M978.685 221.852H970.28V211.961H968.959V221.852H960.554V223.265H968.959V233.157H970.28V223.265H978.685V221.852Z" fill="#F4F4F4"/>
<path d="M978.685 292.506H970.28V282.614H968.959V292.506H960.554V293.919H968.959V303.81H970.28V293.919H978.685V292.506Z" fill="#F4F4F4"/>
<path d="M978.685 363.159H970.28V353.268H968.959V363.159H960.554V364.573H968.959V374.464H970.28V364.573H978.685V363.159Z" fill="#F4F4F4"/>
<path d="M978.685 433.813H970.28V423.922H968.959V433.813H960.554V435.226H968.959V445.118H970.28V435.226H978.685V433.813Z" fill="#F4F4F4"/>
<path d="M978.685 504.467H970.28V494.575H968.959V504.467H960.554V505.88H968.959V515.771H970.28V505.88H978.685V504.467Z" fill="#F4F4F4"/>
<path d="M978.685 575.12H970.28V565.229H968.959V575.12H960.554V576.533H968.959V586.425H970.28V576.533H978.685V575.12Z" fill="#F4F4F4"/>
<path d="M978.685 645.774H970.28V635.882H968.959V645.774H960.554V647.187H968.959V657.078H970.28V647.187H978.685V645.774Z" fill="#F4F4F4"/>
<path d="M978.685 716.427H970.28V706.536H968.959V716.427H960.554V717.84H968.959V727.732H970.28V717.84H978.685V716.427Z" fill="#F4F4F4"/>
<path d="M978.685 787.081H970.28V777.189H968.959V787.081H960.554V788.494H968.959V798.386H970.28V788.494H978.685V787.081Z" fill="#F4F4F4"/>
<path d="M978.685 857.735H970.28V847.843H968.959V857.735H960.554V859.148H968.959V869.039H970.28V859.148H978.685V857.735Z" fill="#F4F4F4"/>
<path d="M978.685 928.388H970.28V918.497H968.959V928.388H960.554V929.801H968.959V939.693H970.28V929.801H978.685V928.388Z" fill="#F4F4F4"/>
<path d="M978.685 999.042H970.28V989.15H968.959V999.042H960.554V1000.45H968.959V1010.35H970.28V1000.45H978.685V999.042Z" fill="#F4F4F4"/>
<path d="M978.685 1069.7H970.28V1059.8H968.959V1069.7H960.554V1071.11H968.959V1081H970.28V1071.11H978.685V1069.7Z" fill="#F4F4F4"/>
<path d="M918.65 9.8915H910.245V0H908.924V9.8915H900.519V11.3046H908.924V21.1961H910.245V11.3046H918.65V9.8915Z" fill="#F4F4F4"/>
<path d="M918.65 80.5451H910.245V70.6536H908.924V80.5451H900.519V81.9581H908.924V91.8496H910.245V81.9581H918.65V80.5451Z" fill="#F4F4F4"/>
<path d="M918.65 151.199H910.245V141.307H908.924V151.199H900.519V152.612H908.924V162.503H910.245V152.612H918.65V151.199Z" fill="#F4F4F4"/>
<path d="M918.65 221.852H910.245V211.961H908.924V221.852H900.519V223.265H908.924V233.157H910.245V223.265H918.65V221.852Z" fill="#F4F4F4"/>
<path d="M918.65 292.506H910.245V282.614H908.924V292.506H900.519V293.919H908.924V303.81H910.245V293.919H918.65V292.506Z" fill="#F4F4F4"/>
<path d="M918.65 363.159H910.245V353.268H908.924V363.159H900.519V364.573H908.924V374.464H910.245V364.573H918.65V363.159Z" fill="#F4F4F4"/>
<path d="M918.65 433.813H910.245V423.922H908.924V433.813H900.519V435.226H908.924V445.118H910.245V435.226H918.65V433.813Z" fill="#F4F4F4"/>
<path d="M918.65 504.467H910.245V494.575H908.924V504.467H900.519V505.88H908.924V515.771H910.245V505.88H918.65V504.467Z" fill="#F4F4F4"/>
<path d="M918.65 575.12H910.245V565.229H908.924V575.12H900.519V576.533H908.924V586.425H910.245V576.533H918.65V575.12Z" fill="#F4F4F4"/>
<path d="M918.65 645.774H910.245V635.882H908.924V645.774H900.519V647.187H908.924V657.078H910.245V647.187H918.65V645.774Z" fill="#F4F4F4"/>
<path d="M918.65 716.427H910.245V706.536H908.924V716.427H900.519V717.84H908.924V727.732H910.245V717.84H918.65V716.427Z" fill="#F4F4F4"/>
<path d="M918.65 787.081H910.245V777.189H908.924V787.081H900.519V788.494H908.924V798.386H910.245V788.494H918.65V787.081Z" fill="#F4F4F4"/>
<path d="M918.65 857.735H910.245V847.843H908.924V857.735H900.519V859.148H908.924V869.039H910.245V859.148H918.65V857.735Z" fill="#F4F4F4"/>
<path d="M918.65 928.388H910.245V918.497H908.924V928.388H900.519V929.801H908.924V939.693H910.245V929.801H918.65V928.388Z" fill="#F4F4F4"/>
<path d="M918.65 999.042H910.245V989.15H908.924V999.042H900.519V1000.45H908.924V1010.35H910.245V1000.45H918.65V999.042Z" fill="#F4F4F4"/>
<path d="M918.65 1069.7H910.245V1059.8H908.924V1069.7H900.519V1071.11H908.924V1081H910.245V1071.11H918.65V1069.7Z" fill="#F4F4F4"/>
<path d="M858.615 9.8915H850.211V0H848.89V9.8915H840.485V11.3046H848.89V21.1961H850.211V11.3046H858.615V9.8915Z" fill="#F4F4F4"/>
<path d="M858.615 80.5451H850.211V70.6536H848.89V80.5451H840.485V81.9581H848.89V91.8496H850.211V81.9581H858.615V80.5451Z" fill="#F4F4F4"/>
<path d="M858.615 151.199H850.211V141.307H848.89V151.199H840.485V152.612H848.89V162.503H850.211V152.612H858.615V151.199Z" fill="#F4F4F4"/>
<path d="M858.615 221.852H850.211V211.961H848.89V221.852H840.485V223.265H848.89V233.157H850.211V223.265H858.615V221.852Z" fill="#F4F4F4"/>
<path d="M858.615 292.506H850.211V282.614H848.89V292.506H840.485V293.919H848.89V303.81H850.211V293.919H858.615V292.506Z" fill="#F4F4F4"/>
<path d="M858.615 363.159H850.211V353.268H848.89V363.159H840.485V364.573H848.89V374.464H850.211V364.573H858.615V363.159Z" fill="#F4F4F4"/>
<path d="M858.615 433.813H850.211V423.922H848.89V433.813H840.485V435.226H848.89V445.118H850.211V435.226H858.615V433.813Z" fill="#F4F4F4"/>
<path d="M858.615 504.467H850.211V494.575H848.89V504.467H840.485V505.88H848.89V515.771H850.211V505.88H858.615V504.467Z" fill="#F4F4F4"/>
<path d="M858.615 575.12H850.211V565.229H848.89V575.12H840.485V576.533H848.89V586.425H850.211V576.533H858.615V575.12Z" fill="#F4F4F4"/>
<path d="M858.615 645.774H850.211V635.882H848.89V645.774H840.485V647.187H848.89V657.078H850.211V647.187H858.615V645.774Z" fill="#F4F4F4"/>
<path d="M858.615 716.427H850.211V706.536H848.89V716.427H840.485V717.84H848.89V727.732H850.211V717.84H858.615V716.427Z" fill="#F4F4F4"/>
<path d="M858.615 787.081H850.211V777.189H848.89V787.081H840.485V788.494H848.89V798.386H850.211V788.494H858.615V787.081Z" fill="#F4F4F4"/>
<path d="M858.615 857.735H850.211V847.843H848.89V857.735H840.485V859.148H848.89V869.039H850.211V859.148H858.615V857.735Z" fill="#F4F4F4"/>
<path d="M858.615 928.388H850.211V918.497H848.89V928.388H840.485V929.801H848.89V939.693H850.211V929.801H858.615V928.388Z" fill="#F4F4F4"/>
<path d="M858.615 999.042H850.211V989.15H848.89V999.042H840.485V1000.45H848.89V1010.35H850.211V1000.45H858.615V999.042Z" fill="#F4F4F4"/>
<path d="M858.615 1069.7H850.211V1059.8H848.89V1069.7H840.485V1071.11H848.89V1081H850.211V1071.11H858.615V1069.7Z" fill="#F4F4F4"/>
<path d="M798.581 9.8915H790.176V0H788.855V9.8915H780.45V11.3046H788.855V21.1961H790.176V11.3046H798.581V9.8915Z" fill="#F4F4F4"/>
<path d="M798.581 80.5451H790.176V70.6536H788.855V80.5451H780.45V81.9581H788.855V91.8496H790.176V81.9581H798.581V80.5451Z" fill="#F4F4F4"/>
<path d="M798.581 151.199H790.176V141.307H788.855V151.199H780.45V152.612H788.855V162.503H790.176V152.612H798.581V151.199Z" fill="#F4F4F4"/>
<path d="M798.581 221.852H790.176V211.961H788.855V221.852H780.45V223.265H788.855V233.157H790.176V223.265H798.581V221.852Z" fill="#F4F4F4"/>
<path d="M798.581 292.506H790.176V282.614H788.855V292.506H780.45V293.919H788.855V303.81H790.176V293.919H798.581V292.506Z" fill="#F4F4F4"/>
<path d="M798.581 363.159H790.176V353.268H788.855V363.159H780.45V364.573H788.855V374.464H790.176V364.573H798.581V363.159Z" fill="#F4F4F4"/>
<path d="M798.581 433.813H790.176V423.922H788.855V433.813H780.45V435.226H788.855V445.118H790.176V435.226H798.581V433.813Z" fill="#F4F4F4"/>
<path d="M798.581 504.467H790.176V494.575H788.855V504.467H780.45V505.88H788.855V515.771H790.176V505.88H798.581V504.467Z" fill="#F4F4F4"/>
<path d="M798.581 575.12H790.176V565.229H788.855V575.12H780.45V576.533H788.855V586.425H790.176V576.533H798.581V575.12Z" fill="#F4F4F4"/>
<path d="M798.581 645.774H790.176V635.882H788.855V645.774H780.45V647.187H788.855V657.078H790.176V647.187H798.581V645.774Z" fill="#F4F4F4"/>
<path d="M798.581 716.427H790.176V706.536H788.855V716.427H780.45V717.84H788.855V727.732H790.176V717.84H798.581V716.427Z" fill="#F4F4F4"/>
<path d="M798.581 787.081H790.176V777.189H788.855V787.081H780.45V788.494H788.855V798.386H790.176V788.494H798.581V787.081Z" fill="#F4F4F4"/>
<path d="M798.581 857.735H790.176V847.843H788.855V857.735H780.45V859.148H788.855V869.039H790.176V859.148H798.581V857.735Z" fill="#F4F4F4"/>
<path d="M798.581 928.388H790.176V918.497H788.855V928.388H780.45V929.801H788.855V939.693H790.176V929.801H798.581V928.388Z" fill="#F4F4F4"/>
<path d="M798.581 999.042H790.176V989.15H788.855V999.042H780.45V1000.45H788.855V1010.35H790.176V1000.45H798.581V999.042Z" fill="#F4F4F4"/>
<path d="M798.581 1069.7H790.176V1059.8H788.855V1069.7H780.45V1071.11H788.855V1081H790.176V1071.11H798.581V1069.7Z" fill="#F4F4F4"/>
<path d="M738.546 9.8915H730.141V0H728.82V9.8915H720.416V11.3046H728.82V21.1961H730.141V11.3046H738.546V9.8915Z" fill="#F4F4F4"/>
<path d="M738.546 80.5451H730.141V70.6536H728.82V80.5451H720.416V81.9581H728.82V91.8496H730.141V81.9581H738.546V80.5451Z" fill="#F4F4F4"/>
<path d="M738.546 151.199H730.141V141.307H728.82V151.199H720.416V152.612H728.82V162.503H730.141V152.612H738.546V151.199Z" fill="#F4F4F4"/>
<path d="M738.546 221.852H730.141V211.961H728.82V221.852H720.416V223.265H728.82V233.157H730.141V223.265H738.546V221.852Z" fill="#F4F4F4"/>
<path d="M738.546 292.506H730.141V282.614H728.82V292.506H720.416V293.919H728.82V303.81H730.141V293.919H738.546V292.506Z" fill="#F4F4F4"/>
<path d="M738.546 363.159H730.141V353.268H728.82V363.159H720.416V364.573H728.82V374.464H730.141V364.573H738.546V363.159Z" fill="#F4F4F4"/>
<path d="M738.546 433.813H730.141V423.922H728.82V433.813H720.416V435.226H728.82V445.118H730.141V435.226H738.546V433.813Z" fill="#F4F4F4"/>
<path d="M738.546 504.467H730.141V494.575H728.82V504.467H720.416V505.88H728.82V515.771H730.141V505.88H738.546V504.467Z" fill="#F4F4F4"/>
<path d="M738.546 575.12H730.141V565.229H728.82V575.12H720.416V576.533H728.82V586.425H730.141V576.533H738.546V575.12Z" fill="#F4F4F4"/>
<path d="M738.546 645.774H730.141V635.882H728.82V645.774H720.416V647.187H728.82V657.078H730.141V647.187H738.546V645.774Z" fill="#F4F4F4"/>
<path d="M738.546 716.427H730.141V706.536H728.82V716.427H720.416V717.84H728.82V727.732H730.141V717.84H738.546V716.427Z" fill="#F4F4F4"/>
<path d="M738.546 787.081H730.141V777.189H728.82V787.081H720.416V788.494H728.82V798.386H730.141V788.494H738.546V787.081Z" fill="#F4F4F4"/>
<path d="M738.546 857.735H730.141V847.843H728.82V857.735H720.416V859.148H728.82V869.039H730.141V859.148H738.546V857.735Z" fill="#F4F4F4"/>
<path d="M738.546 928.388H730.141V918.497H728.82V928.388H720.416V929.801H728.82V939.693H730.141V929.801H738.546V928.388Z" fill="#F4F4F4"/>
<path d="M738.546 999.042H730.141V989.15H728.82V999.042H720.416V1000.45H728.82V1010.35H730.141V1000.45H738.546V999.042Z" fill="#F4F4F4"/>
<path d="M738.546 1069.7H730.141V1059.8H728.82V1069.7H720.416V1071.11H728.82V1081H730.141V1071.11H738.546V1069.7Z" fill="#F4F4F4"/>
<path d="M678.511 9.8915H670.107V0H668.786V9.8915H660.381V11.3046H668.786V21.1961H670.107V11.3046H678.511V9.8915Z" fill="#F4F4F4"/>
<path d="M678.511 80.5451H670.107V70.6536H668.786V80.5451H660.381V81.9581H668.786V91.8496H670.107V81.9581H678.511V80.5451Z" fill="#F4F4F4"/>
<path d="M678.511 151.199H670.107V141.307H668.786V151.199H660.381V152.612H668.786V162.503H670.107V152.612H678.511V151.199Z" fill="#F4F4F4"/>
<path d="M678.511 221.852H670.107V211.961H668.786V221.852H660.381V223.265H668.786V233.157H670.107V223.265H678.511V221.852Z" fill="#F4F4F4"/>
<path d="M678.511 292.506H670.107V282.614H668.786V292.506H660.381V293.919H668.786V303.81H670.107V293.919H678.511V292.506Z" fill="#F4F4F4"/>
<path d="M678.511 363.159H670.107V353.268H668.786V363.159H660.381V364.573H668.786V374.464H670.107V364.573H678.511V363.159Z" fill="#F4F4F4"/>
<path d="M678.511 433.813H670.107V423.922H668.786V433.813H660.381V435.226H668.786V445.118H670.107V435.226H678.511V433.813Z" fill="#F4F4F4"/>
<path d="M678.511 504.467H670.107V494.575H668.786V504.467H660.381V505.88H668.786V515.771H670.107V505.88H678.511V504.467Z" fill="#F4F4F4"/>
<path d="M678.511 575.12H670.107V565.229H668.786V575.12H660.381V576.533H668.786V586.425H670.107V576.533H678.511V575.12Z" fill="#F4F4F4"/>
<path d="M678.511 645.774H670.107V635.882H668.786V645.774H660.381V647.187H668.786V657.078H670.107V647.187H678.511V645.774Z" fill="#F4F4F4"/>
<path d="M678.511 716.427H670.107V706.536H668.786V716.427H660.381V717.84H668.786V727.732H670.107V717.84H678.511V716.427Z" fill="#F4F4F4"/>
<path d="M678.511 787.081H670.107V777.189H668.786V787.081H660.381V788.494H668.786V798.386H670.107V788.494H678.511V787.081Z" fill="#F4F4F4"/>
<path d="M678.511 857.735H670.107V847.843H668.786V857.735H660.381V859.148H668.786V869.039H670.107V859.148H678.511V857.735Z" fill="#F4F4F4"/>
<path d="M678.511 928.388H670.107V918.497H668.786V928.388H660.381V929.801H668.786V939.693H670.107V929.801H678.511V928.388Z" fill="#F4F4F4"/>
<path d="M678.511 999.042H670.107V989.15H668.786V999.042H660.381V1000.45H668.786V1010.35H670.107V1000.45H678.511V999.042Z" fill="#F4F4F4"/>
<path d="M678.511 1069.7H670.107V1059.8H668.786V1069.7H660.381V1071.11H668.786V1081H670.107V1071.11H678.511V1069.7Z" fill="#F4F4F4"/>
<path d="M618.477 9.8915H610.072V0H608.751V9.8915H600.346V11.3046H608.751V21.1961H610.072V11.3046H618.477V9.8915Z" fill="#F4F4F4"/>
<path d="M618.477 80.5451H610.072V70.6536H608.751V80.5451H600.346V81.9581H608.751V91.8496H610.072V81.9581H618.477V80.5451Z" fill="#F4F4F4"/>
<path d="M618.477 151.199H610.072V141.307H608.751V151.199H600.346V152.612H608.751V162.503H610.072V152.612H618.477V151.199Z" fill="#F4F4F4"/>
<path d="M618.477 221.852H610.072V211.961H608.751V221.852H600.346V223.265H608.751V233.157H610.072V223.265H618.477V221.852Z" fill="#F4F4F4"/>
<path d="M618.477 292.506H610.072V282.614H608.751V292.506H600.346V293.919H608.751V303.81H610.072V293.919H618.477V292.506Z" fill="#F4F4F4"/>
<path d="M618.477 363.159H610.072V353.268H608.751V363.159H600.346V364.573H608.751V374.464H610.072V364.573H618.477V363.159Z" fill="#F4F4F4"/>
<path d="M618.477 433.813H610.072V423.922H608.751V433.813H600.346V435.226H608.751V445.118H610.072V435.226H618.477V433.813Z" fill="#F4F4F4"/>
<path d="M618.477 504.467H610.072V494.575H608.751V504.467H600.346V505.88H608.751V515.771H610.072V505.88H618.477V504.467Z" fill="#F4F4F4"/>
<path d="M618.477 575.12H610.072V565.229H608.751V575.12H600.346V576.533H608.751V586.425H610.072V576.533H618.477V575.12Z" fill="#F4F4F4"/>
<path d="M618.477 645.774H610.072V635.882H608.751V645.774H600.346V647.187H608.751V657.078H610.072V647.187H618.477V645.774Z" fill="#F4F4F4"/>
<path d="M618.477 716.427H610.072V706.536H608.751V716.427H600.346V717.84H608.751V727.732H610.072V717.84H618.477V716.427Z" fill="#F4F4F4"/>
<path d="M618.477 787.081H610.072V777.189H608.751V787.081H600.346V788.494H608.751V798.386H610.072V788.494H618.477V787.081Z" fill="#F4F4F4"/>
<path d="M618.477 857.735H610.072V847.843H608.751V857.735H600.346V859.148H608.751V869.039H610.072V859.148H618.477V857.735Z" fill="#F4F4F4"/>
<path d="M618.477 928.388H610.072V918.497H608.751V928.388H600.346V929.801H608.751V939.693H610.072V929.801H618.477V928.388Z" fill="#F4F4F4"/>
<path d="M618.477 999.042H610.072V989.15H608.751V999.042H600.346V1000.45H608.751V1010.35H610.072V1000.45H618.477V999.042Z" fill="#F4F4F4"/>
<path d="M618.477 1069.7H610.072V1059.8H608.751V1069.7H600.346V1071.11H608.751V1081H610.072V1071.11H618.477V1069.7Z" fill="#F4F4F4"/>
<path d="M558.442 9.8915H550.037V0H548.716V9.8915H540.312V11.3046H548.716V21.1961H550.037V11.3046H558.442V9.8915Z" fill="#F4F4F4"/>
<path d="M558.442 80.5451H550.037V70.6536H548.716V80.5451H540.312V81.9581H548.716V91.8496H550.037V81.9581H558.442V80.5451Z" fill="#F4F4F4"/>
<path d="M558.442 151.199H550.037V141.307H548.716V151.199H540.312V152.612H548.716V162.503H550.037V152.612H558.442V151.199Z" fill="#F4F4F4"/>
<path d="M558.442 221.852H550.037V211.961H548.716V221.852H540.312V223.265H548.716V233.157H550.037V223.265H558.442V221.852Z" fill="#F4F4F4"/>
<path d="M558.442 292.506H550.037V282.614H548.716V292.506H540.312V293.919H548.716V303.81H550.037V293.919H558.442V292.506Z" fill="#F4F4F4"/>
<path d="M558.442 363.159H550.037V353.268H548.716V363.159H540.312V364.573H548.716V374.464H550.037V364.573H558.442V363.159Z" fill="#F4F4F4"/>
<path d="M558.442 433.813H550.037V423.922H548.716V433.813H540.312V435.226H548.716V445.118H550.037V435.226H558.442V433.813Z" fill="#F4F4F4"/>
<path d="M558.442 504.467H550.037V494.575H548.716V504.467H540.312V505.88H548.716V515.771H550.037V505.88H558.442V504.467Z" fill="#F4F4F4"/>
<path d="M558.442 575.12H550.037V565.229H548.716V575.12H540.312V576.533H548.716V586.425H550.037V576.533H558.442V575.12Z" fill="#F4F4F4"/>
<path d="M558.442 645.774H550.037V635.882H548.716V645.774H540.312V647.187H548.716V657.078H550.037V647.187H558.442V645.774Z" fill="#F4F4F4"/>
<path d="M558.442 716.427H550.037V706.536H548.716V716.427H540.312V717.84H548.716V727.732H550.037V717.84H558.442V716.427Z" fill="#F4F4F4"/>
<path d="M558.442 787.081H550.037V777.189H548.716V787.081H540.312V788.494H548.716V798.386H550.037V788.494H558.442V787.081Z" fill="#F4F4F4"/>
<path d="M558.442 857.735H550.037V847.843H548.716V857.735H540.312V859.148H548.716V869.039H550.037V859.148H558.442V857.735Z" fill="#F4F4F4"/>
<path d="M558.442 928.388H550.037V918.497H548.716V928.388H540.312V929.801H548.716V939.693H550.037V929.801H558.442V928.388Z" fill="#F4F4F4"/>
<path d="M558.442 999.042H550.037V989.15H548.716V999.042H540.312V1000.45H548.716V1010.35H550.037V1000.45H558.442V999.042Z" fill="#F4F4F4"/>
<path d="M558.442 1069.7H550.037V1059.8H548.716V1069.7H540.312V1071.11H548.716V1081H550.037V1071.11H558.442V1069.7Z" fill="#F4F4F4"/>
<path d="M498.408 9.8915H490.003V0H488.682V9.8915H480.277V11.3046H488.682V21.1961H490.003V11.3046H498.408V9.8915Z" fill="#F4F4F4"/>
<path d="M498.408 80.5451H490.003V70.6536H488.682V80.5451H480.277V81.9581H488.682V91.8496H490.003V81.9581H498.408V80.5451Z" fill="#F4F4F4"/>
<path d="M498.408 151.199H490.003V141.307H488.682V151.199H480.277V152.612H488.682V162.503H490.003V152.612H498.408V151.199Z" fill="#F4F4F4"/>
<path d="M498.408 221.852H490.003V211.961H488.682V221.852H480.277V223.265H488.682V233.157H490.003V223.265H498.408V221.852Z" fill="#F4F4F4"/>
<path d="M498.408 292.506H490.003V282.614H488.682V292.506H480.277V293.919H488.682V303.81H490.003V293.919H498.408V292.506Z" fill="#F4F4F4"/>
<path d="M498.408 363.159H490.003V353.268H488.682V363.159H480.277V364.573H488.682V374.464H490.003V364.573H498.408V363.159Z" fill="#F4F4F4"/>
<path d="M498.408 433.813H490.003V423.922H488.682V433.813H480.277V435.226H488.682V445.118H490.003V435.226H498.408V433.813Z" fill="#F4F4F4"/>
<path d="M498.408 504.467H490.003V494.575H488.682V504.467H480.277V505.88H488.682V515.771H490.003V505.88H498.408V504.467Z" fill="#F4F4F4"/>
<path d="M498.408 575.12H490.003V565.229H488.682V575.12H480.277V576.533H488.682V586.425H490.003V576.533H498.408V575.12Z" fill="#F4F4F4"/>
<path d="M498.408 645.774H490.003V635.882H488.682V645.774H480.277V647.187H488.682V657.078H490.003V647.187H498.408V645.774Z" fill="#F4F4F4"/>
<path d="M498.408 716.427H490.003V706.536H488.682V716.427H480.277V717.84H488.682V727.732H490.003V717.84H498.408V716.427Z" fill="#F4F4F4"/>
<path d="M498.408 787.081H490.003V777.189H488.682V787.081H480.277V788.494H488.682V798.386H490.003V788.494H498.408V787.081Z" fill="#F4F4F4"/>
<path d="M498.408 857.735H490.003V847.843H488.682V857.735H480.277V859.148H488.682V869.039H490.003V859.148H498.408V857.735Z" fill="#F4F4F4"/>
<path d="M498.408 928.388H490.003V918.497H488.682V928.388H480.277V929.801H488.682V939.693H490.003V929.801H498.408V928.388Z" fill="#F4F4F4"/>
<path d="M498.408 999.042H490.003V989.15H488.682V999.042H480.277V1000.45H488.682V1010.35H490.003V1000.45H498.408V999.042Z" fill="#F4F4F4"/>
<path d="M498.408 1069.7H490.003V1059.8H488.682V1069.7H480.277V1071.11H488.682V1081H490.003V1071.11H498.408V1069.7Z" fill="#F4F4F4"/>
<path d="M438.373 9.8915H429.968V0H428.647V9.8915H420.242V11.3046H428.647V21.1961H429.968V11.3046H438.373V9.8915Z" fill="#F4F4F4"/>
<path d="M438.373 80.5451H429.968V70.6536H428.647V80.5451H420.242V81.9581H428.647V91.8496H429.968V81.9581H438.373V80.5451Z" fill="#F4F4F4"/>
<path d="M438.373 151.199H429.968V141.307H428.647V151.199H420.242V152.612H428.647V162.503H429.968V152.612H438.373V151.199Z" fill="#F4F4F4"/>
<path d="M438.373 221.852H429.968V211.961H428.647V221.852H420.242V223.265H428.647V233.157H429.968V223.265H438.373V221.852Z" fill="#F4F4F4"/>
<path d="M438.373 292.506H429.968V282.614H428.647V292.506H420.242V293.919H428.647V303.81H429.968V293.919H438.373V292.506Z" fill="#F4F4F4"/>
<path d="M438.373 363.159H429.968V353.268H428.647V363.159H420.242V364.573H428.647V374.464H429.968V364.573H438.373V363.159Z" fill="#F4F4F4"/>
<path d="M438.373 433.813H429.968V423.922H428.647V433.813H420.242V435.226H428.647V445.118H429.968V435.226H438.373V433.813Z" fill="#F4F4F4"/>
<path d="M438.373 504.467H429.968V494.575H428.647V504.467H420.242V505.88H428.647V515.771H429.968V505.88H438.373V504.467Z" fill="#F4F4F4"/>
<path d="M438.373 575.12H429.968V565.229H428.647V575.12H420.242V576.533H428.647V586.425H429.968V576.533H438.373V575.12Z" fill="#F4F4F4"/>
<path d="M438.373 645.774H429.968V635.882H428.647V645.774H420.242V647.187H428.647V657.078H429.968V647.187H438.373V645.774Z" fill="#F4F4F4"/>
<path d="M438.373 716.427H429.968V706.536H428.647V716.427H420.242V717.84H428.647V727.732H429.968V717.84H438.373V716.427Z" fill="#F4F4F4"/>
<path d="M438.373 787.081H429.968V777.189H428.647V787.081H420.242V788.494H428.647V798.386H429.968V788.494H438.373V787.081Z" fill="#F4F4F4"/>
<path d="M438.373 857.735H429.968V847.843H428.647V857.735H420.242V859.148H428.647V869.039H429.968V859.148H438.373V857.735Z" fill="#F4F4F4"/>
<path d="M438.373 928.388H429.968V918.497H428.647V928.388H420.242V929.801H428.647V939.693H429.968V929.801H438.373V928.388Z" fill="#F4F4F4"/>
<path d="M438.373 999.042H429.968V989.15H428.647V999.042H420.242V1000.45H428.647V1010.35H429.968V1000.45H438.373V999.042Z" fill="#F4F4F4"/>
<path d="M438.373 1069.7H429.968V1059.8H428.647V1069.7H420.242V1071.11H428.647V1081H429.968V1071.11H438.373V1069.7Z" fill="#F4F4F4"/>
<path d="M378.338 9.8915H369.933V0H368.613V9.8915H360.208V11.3046H368.613V21.1961H369.933V11.3046H378.338V9.8915Z" fill="#F4F4F4"/>
<path d="M378.338 80.5451H369.933V70.6536H368.613V80.5451H360.208V81.9581H368.613V91.8496H369.933V81.9581H378.338V80.5451Z" fill="#F4F4F4"/>
<path d="M378.338 151.199H369.933V141.307H368.613V151.199H360.208V152.612H368.613V162.503H369.933V152.612H378.338V151.199Z" fill="#F4F4F4"/>
<path d="M378.338 221.852H369.933V211.961H368.613V221.852H360.208V223.265H368.613V233.157H369.933V223.265H378.338V221.852Z" fill="#F4F4F4"/>
<path d="M378.338 292.506H369.933V282.614H368.613V292.506H360.208V293.919H368.613V303.81H369.933V293.919H378.338V292.506Z" fill="#F4F4F4"/>
<path d="M378.338 363.159H369.933V353.268H368.613V363.159H360.208V364.573H368.613V374.464H369.933V364.573H378.338V363.159Z" fill="#F4F4F4"/>
<path d="M378.338 433.813H369.933V423.922H368.613V433.813H360.208V435.226H368.613V445.118H369.933V435.226H378.338V433.813Z" fill="#F4F4F4"/>
<path d="M378.338 504.467H369.933V494.575H368.613V504.467H360.208V505.88H368.613V515.771H369.933V505.88H378.338V504.467Z" fill="#F4F4F4"/>
<path d="M378.338 575.12H369.933V565.229H368.613V575.12H360.208V576.533H368.613V586.425H369.933V576.533H378.338V575.12Z" fill="#F4F4F4"/>
<path d="M378.338 645.774H369.933V635.882H368.613V645.774H360.208V647.187H368.613V657.078H369.933V647.187H378.338V645.774Z" fill="#F4F4F4"/>
<path d="M378.338 716.427H369.933V706.536H368.613V716.427H360.208V717.84H368.613V727.732H369.933V717.84H378.338V716.427Z" fill="#F4F4F4"/>
<path d="M378.338 787.081H369.933V777.189H368.613V787.081H360.208V788.494H368.613V798.386H369.933V788.494H378.338V787.081Z" fill="#F4F4F4"/>
<path d="M378.338 857.735H369.933V847.843H368.613V857.735H360.208V859.148H368.613V869.039H369.933V859.148H378.338V857.735Z" fill="#F4F4F4"/>
<path d="M378.338 928.388H369.933V918.497H368.613V928.388H360.208V929.801H368.613V939.693H369.933V929.801H378.338V928.388Z" fill="#F4F4F4"/>
<path d="M378.338 999.042H369.933V989.15H368.613V999.042H360.208V1000.45H368.613V1010.35H369.933V1000.45H378.338V999.042Z" fill="#F4F4F4"/>
<path d="M378.338 1069.7H369.933V1059.8H368.613V1069.7H360.208V1071.11H368.613V1081H369.933V1071.11H378.338V1069.7Z" fill="#F4F4F4"/>
<path d="M318.304 9.8915H309.899V0H308.578V9.8915H300.173V11.3046H308.578V21.1961H309.899V11.3046H318.304V9.8915Z" fill="#F4F4F4"/>
<path d="M318.304 80.5451H309.899V70.6536H308.578V80.5451H300.173V81.9581H308.578V91.8496H309.899V81.9581H318.304V80.5451Z" fill="#F4F4F4"/>
<path d="M318.304 151.199H309.899V141.307H308.578V151.199H300.173V152.612H308.578V162.503H309.899V152.612H318.304V151.199Z" fill="#F4F4F4"/>
<path d="M318.304 221.852H309.899V211.961H308.578V221.852H300.173V223.265H308.578V233.157H309.899V223.265H318.304V221.852Z" fill="#F4F4F4"/>
<path d="M318.304 292.506H309.899V282.614H308.578V292.506H300.173V293.919H308.578V303.81H309.899V293.919H318.304V292.506Z" fill="#F4F4F4"/>
<path d="M318.304 363.159H309.899V353.268H308.578V363.159H300.173V364.573H308.578V374.464H309.899V364.573H318.304V363.159Z" fill="#F4F4F4"/>
<path d="M318.304 433.813H309.899V423.922H308.578V433.813H300.173V435.226H308.578V445.118H309.899V435.226H318.304V433.813Z" fill="#F4F4F4"/>
<path d="M318.304 504.467H309.899V494.575H308.578V504.467H300.173V505.88H308.578V515.771H309.899V505.88H318.304V504.467Z" fill="#F4F4F4"/>
<path d="M318.304 575.12H309.899V565.229H308.578V575.12H300.173V576.533H308.578V586.425H309.899V576.533H318.304V575.12Z" fill="#F4F4F4"/>
<path d="M318.304 645.774H309.899V635.882H308.578V645.774H300.173V647.187H308.578V657.078H309.899V647.187H318.304V645.774Z" fill="#F4F4F4"/>
<path d="M318.304 716.427H309.899V706.536H308.578V716.427H300.173V717.84H308.578V727.732H309.899V717.84H318.304V716.427Z" fill="#F4F4F4"/>
<path d="M318.304 787.081H309.899V777.189H308.578V787.081H300.173V788.494H308.578V798.386H309.899V788.494H318.304V787.081Z" fill="#F4F4F4"/>
<path d="M318.304 857.735H309.899V847.843H308.578V857.735H300.173V859.148H308.578V869.039H309.899V859.148H318.304V857.735Z" fill="#F4F4F4"/>
<path d="M318.304 928.388H309.899V918.497H308.578V928.388H300.173V929.801H308.578V939.693H309.899V929.801H318.304V928.388Z" fill="#F4F4F4"/>
<path d="M318.304 999.042H309.899V989.15H308.578V999.042H300.173V1000.45H308.578V1010.35H309.899V1000.45H318.304V999.042Z" fill="#F4F4F4"/>
<path d="M318.304 1069.7H309.899V1059.8H308.578V1069.7H300.173V1071.11H308.578V1081H309.899V1071.11H318.304V1069.7Z" fill="#F4F4F4"/>
<path d="M258.269 9.8915H249.864V0H248.543V9.8915H240.138V11.3046H248.543V21.1961H249.864V11.3046H258.269V9.8915Z" fill="#F4F4F4"/>
<path d="M258.269 80.5451H249.864V70.6536H248.543V80.5451H240.138V81.9581H248.543V91.8496H249.864V81.9581H258.269V80.5451Z" fill="#F4F4F4"/>
<path d="M258.269 151.199H249.864V141.307H248.543V151.199H240.138V152.612H248.543V162.503H249.864V152.612H258.269V151.199Z" fill="#F4F4F4"/>
<path d="M258.269 221.852H249.864V211.961H248.543V221.852H240.138V223.265H248.543V233.157H249.864V223.265H258.269V221.852Z" fill="#F4F4F4"/>
<path d="M258.269 292.506H249.864V282.614H248.543V292.506H240.138V293.919H248.543V303.81H249.864V293.919H258.269V292.506Z" fill="#F4F4F4"/>
<path d="M258.269 363.159H249.864V353.268H248.543V363.159H240.138V364.573H248.543V374.464H249.864V364.573H258.269V363.159Z" fill="#F4F4F4"/>
<path d="M258.269 433.813H249.864V423.922H248.543V433.813H240.138V435.226H248.543V445.118H249.864V435.226H258.269V433.813Z" fill="#F4F4F4"/>
<path d="M258.269 504.467H249.864V494.575H248.543V504.467H240.138V505.88H248.543V515.771H249.864V505.88H258.269V504.467Z" fill="#F4F4F4"/>
<path d="M258.269 575.12H249.864V565.229H248.543V575.12H240.138V576.533H248.543V586.425H249.864V576.533H258.269V575.12Z" fill="#F4F4F4"/>
<path d="M258.269 645.774H249.864V635.882H248.543V645.774H240.138V647.187H248.543V657.078H249.864V647.187H258.269V645.774Z" fill="#F4F4F4"/>
<path d="M258.269 716.427H249.864V706.536H248.543V716.427H240.138V717.84H248.543V727.732H249.864V717.84H258.269V716.427Z" fill="#F4F4F4"/>
<path d="M258.269 787.081H249.864V777.189H248.543V787.081H240.138V788.494H248.543V798.386H249.864V788.494H258.269V787.081Z" fill="#F4F4F4"/>
<path d="M258.269 857.735H249.864V847.843H248.543V857.735H240.138V859.148H248.543V869.039H249.864V859.148H258.269V857.735Z" fill="#F4F4F4"/>
<path d="M258.269 928.388H249.864V918.497H248.543V928.388H240.138V929.801H248.543V939.693H249.864V929.801H258.269V928.388Z" fill="#F4F4F4"/>
<path d="M258.269 999.042H249.864V989.15H248.543V999.042H240.138V1000.45H248.543V1010.35H249.864V1000.45H258.269V999.042Z" fill="#F4F4F4"/>
<path d="M258.269 1069.7H249.864V1059.8H248.543V1069.7H240.138V1071.11H248.543V1081H249.864V1071.11H258.269V1069.7Z" fill="#F4F4F4"/>
<path d="M198.234 9.8915H189.83V0H188.509V9.8915H180.104V11.3046H188.509V21.1961H189.83V11.3046H198.234V9.8915Z" fill="#F4F4F4"/>
<path d="M198.234 80.5451H189.83V70.6536H188.509V80.5451H180.104V81.9581H188.509V91.8496H189.83V81.9581H198.234V80.5451Z" fill="#F4F4F4"/>
<path d="M198.234 151.199H189.83V141.307H188.509V151.199H180.104V152.612H188.509V162.503H189.83V152.612H198.234V151.199Z" fill="#F4F4F4"/>
<path d="M198.234 221.852H189.83V211.961H188.509V221.852H180.104V223.265H188.509V233.157H189.83V223.265H198.234V221.852Z" fill="#F4F4F4"/>
<path d="M198.234 292.506H189.83V282.614H188.509V292.506H180.104V293.919H188.509V303.81H189.83V293.919H198.234V292.506Z" fill="#F4F4F4"/>
<path d="M198.234 363.159H189.83V353.268H188.509V363.159H180.104V364.573H188.509V374.464H189.83V364.573H198.234V363.159Z" fill="#F4F4F4"/>
<path d="M198.234 433.813H189.83V423.922H188.509V433.813H180.104V435.226H188.509V445.118H189.83V435.226H198.234V433.813Z" fill="#F4F4F4"/>
<path d="M198.234 504.467H189.83V494.575H188.509V504.467H180.104V505.88H188.509V515.771H189.83V505.88H198.234V504.467Z" fill="#F4F4F4"/>
<path d="M198.234 575.12H189.83V565.229H188.509V575.12H180.104V576.533H188.509V586.425H189.83V576.533H198.234V575.12Z" fill="#F4F4F4"/>
<path d="M198.234 645.774H189.83V635.882H188.509V645.774H180.104V647.187H188.509V657.078H189.83V647.187H198.234V645.774Z" fill="#F4F4F4"/>
<path d="M198.234 716.427H189.83V706.536H188.509V716.427H180.104V717.84H188.509V727.732H189.83V717.84H198.234V716.427Z" fill="#F4F4F4"/>
<path d="M198.234 787.081H189.83V777.189H188.509V787.081H180.104V788.494H188.509V798.386H189.83V788.494H198.234V787.081Z" fill="#F4F4F4"/>
<path d="M198.234 857.735H189.83V847.843H188.509V857.735H180.104V859.148H188.509V869.039H189.83V859.148H198.234V857.735Z" fill="#F4F4F4"/>
<path d="M198.234 928.388H189.83V918.497H188.509V928.388H180.104V929.801H188.509V939.693H189.83V929.801H198.234V928.388Z" fill="#F4F4F4"/>
<path d="M198.234 999.042H189.83V989.15H188.509V999.042H180.104V1000.45H188.509V1010.35H189.83V1000.45H198.234V999.042Z" fill="#F4F4F4"/>
<path d="M198.234 1069.7H189.83V1059.8H188.509V1069.7H180.104V1071.11H188.509V1081H189.83V1071.11H198.234V1069.7Z" fill="#F4F4F4"/>
<path d="M138.2 9.8915H129.795V0H128.474V9.8915H120.069V11.3046H128.474V21.1961H129.795V11.3046H138.2V9.8915Z" fill="#F4F4F4"/>
<path d="M138.2 80.5451H129.795V70.6536H128.474V80.5451H120.069V81.9581H128.474V91.8496H129.795V81.9581H138.2V80.5451Z" fill="#F4F4F4"/>
<path d="M138.2 151.199H129.795V141.307H128.474V151.199H120.069V152.612H128.474V162.503H129.795V152.612H138.2V151.199Z" fill="#F4F4F4"/>
<path d="M138.2 221.852H129.795V211.961H128.474V221.852H120.069V223.265H128.474V233.157H129.795V223.265H138.2V221.852Z" fill="#F4F4F4"/>
<path d="M138.2 292.506H129.795V282.614H128.474V292.506H120.069V293.919H128.474V303.81H129.795V293.919H138.2V292.506Z" fill="#F4F4F4"/>
<path d="M138.2 363.159H129.795V353.268H128.474V363.159H120.069V364.573H128.474V374.464H129.795V364.573H138.2V363.159Z" fill="#F4F4F4"/>
<path d="M138.2 433.813H129.795V423.922H128.474V433.813H120.069V435.226H128.474V445.118H129.795V435.226H138.2V433.813Z" fill="#F4F4F4"/>
<path d="M138.2 504.467H129.795V494.575H128.474V504.467H120.069V505.88H128.474V515.771H129.795V505.88H138.2V504.467Z" fill="#F4F4F4"/>
<path d="M138.2 575.12H129.795V565.229H128.474V575.12H120.069V576.533H128.474V586.425H129.795V576.533H138.2V575.12Z" fill="#F4F4F4"/>
<path d="M138.2 645.774H129.795V635.882H128.474V645.774H120.069V647.187H128.474V657.078H129.795V647.187H138.2V645.774Z" fill="#F4F4F4"/>
<path d="M138.2 716.427H129.795V706.536H128.474V716.427H120.069V717.84H128.474V727.732H129.795V717.84H138.2V716.427Z" fill="#F4F4F4"/>
<path d="M138.2 787.081H129.795V777.189H128.474V787.081H120.069V788.494H128.474V798.386H129.795V788.494H138.2V787.081Z" fill="#F4F4F4"/>
<path d="M138.2 857.735H129.795V847.843H128.474V857.735H120.069V859.148H128.474V869.039H129.795V859.148H138.2V857.735Z" fill="#F4F4F4"/>
<path d="M138.2 928.388H129.795V918.497H128.474V928.388H120.069V929.801H128.474V939.693H129.795V929.801H138.2V928.388Z" fill="#F4F4F4"/>
<path d="M138.2 999.042H129.795V989.15H128.474V999.042H120.069V1000.45H128.474V1010.35H129.795V1000.45H138.2V999.042Z" fill="#F4F4F4"/>
<path d="M138.2 1069.7H129.795V1059.8H128.474V1069.7H120.069V1071.11H128.474V1081H129.795V1071.11H138.2V1069.7Z" fill="#F4F4F4"/>
<path d="M78.1652 9.8915H69.7604V0H68.4395V9.8915H60.0347V11.3046H68.4395V21.1961H69.7604V11.3046H78.1652V9.8915Z" fill="#F4F4F4"/>
<path d="M78.1652 80.5451H69.7604V70.6536H68.4395V80.5451H60.0347V81.9581H68.4395V91.8496H69.7604V81.9581H78.1652V80.5451Z" fill="#F4F4F4"/>
<path d="M78.1652 151.199H69.7604V141.307H68.4395V151.199H60.0347V152.612H68.4395V162.503H69.7604V152.612H78.1652V151.199Z" fill="#F4F4F4"/>
<path d="M78.1652 221.852H69.7604V211.961H68.4395V221.852H60.0347V223.265H68.4395V233.157H69.7604V223.265H78.1652V221.852Z" fill="#F4F4F4"/>
<path d="M78.1652 292.506H69.7604V282.614H68.4395V292.506H60.0347V293.919H68.4395V303.81H69.7604V293.919H78.1652V292.506Z" fill="#F4F4F4"/>
<path d="M78.1652 363.159H69.7604V353.268H68.4395V363.159H60.0347V364.573H68.4395V374.464H69.7604V364.573H78.1652V363.159Z" fill="#F4F4F4"/>
<path d="M78.1652 433.813H69.7604V423.922H68.4395V433.813H60.0347V435.226H68.4395V445.118H69.7604V435.226H78.1652V433.813Z" fill="#F4F4F4"/>
<path d="M78.1652 504.467H69.7604V494.575H68.4395V504.467H60.0347V505.88H68.4395V515.771H69.7604V505.88H78.1652V504.467Z" fill="#F4F4F4"/>
<path d="M78.1652 575.12H69.7604V565.229H68.4395V575.12H60.0347V576.533H68.4395V586.425H69.7604V576.533H78.1652V575.12Z" fill="#F4F4F4"/>
<path d="M78.1652 645.774H69.7604V635.882H68.4395V645.774H60.0347V647.187H68.4395V657.078H69.7604V647.187H78.1652V645.774Z" fill="#F4F4F4"/>
<path d="M78.1652 716.427H69.7604V706.536H68.4395V716.427H60.0347V717.84H68.4395V727.732H69.7604V717.84H78.1652V716.427Z" fill="#F4F4F4"/>
<path d="M78.1652 787.081H69.7604V777.189H68.4395V787.081H60.0347V788.494H68.4395V798.386H69.7604V788.494H78.1652V787.081Z" fill="#F4F4F4"/>
<path d="M78.1652 857.735H69.7604V847.843H68.4395V857.735H60.0347V859.148H68.4395V869.039H69.7604V859.148H78.1652V857.735Z" fill="#F4F4F4"/>
<path d="M78.1652 928.388H69.7604V918.497H68.4395V928.388H60.0347V929.801H68.4395V939.693H69.7604V929.801H78.1652V928.388Z" fill="#F4F4F4"/>
<path d="M78.1652 999.042H69.7604V989.15H68.4395V999.042H60.0347V1000.45H68.4395V1010.35H69.7604V1000.45H78.1652V999.042Z" fill="#F4F4F4"/>
<path d="M78.1652 1069.7H69.7604V1059.8H68.4395V1069.7H60.0347V1071.11H68.4395V1081H69.7604V1071.11H78.1652V1069.7Z" fill="#F4F4F4"/>
<path d="M18.1306 9.8915H9.72573V0H8.40485V9.8915H0V11.3046H8.40485V21.1961H9.72573V11.3046H18.1306V9.8915Z" fill="#F4F4F4"/>
<path d="M18.1306 80.5451H9.72573V70.6536H8.40485V80.5451H0V81.9581H8.40485V91.8496H9.72573V81.9581H18.1306V80.5451Z" fill="#F4F4F4"/>
<path d="M18.1306 151.199H9.72573V141.307H8.40485V151.199H0V152.612H8.40485V162.503H9.72573V152.612H18.1306V151.199Z" fill="#F4F4F4"/>
<path d="M18.1306 221.852H9.72573V211.961H8.40485V221.852H0V223.265H8.40485V233.157H9.72573V223.265H18.1306V221.852Z" fill="#F4F4F4"/>
<path d="M18.1306 292.506H9.72573V282.614H8.40485V292.506H0V293.919H8.40485V303.81H9.72573V293.919H18.1306V292.506Z" fill="#F4F4F4"/>
<path d="M18.1306 363.159H9.72573V353.268H8.40485V363.159H0V364.573H8.40485V374.464H9.72573V364.573H18.1306V363.159Z" fill="#F4F4F4"/>
<path d="M18.1306 433.813H9.72573V423.922H8.40485V433.813H0V435.226H8.40485V445.118H9.72573V435.226H18.1306V433.813Z" fill="#F4F4F4"/>
<path d="M18.1306 504.467H9.72573V494.575H8.40485V504.467H0V505.88H8.40485V515.771H9.72573V505.88H18.1306V504.467Z" fill="#F4F4F4"/>
<path d="M18.1306 575.12H9.72573V565.229H8.40485V575.12H0V576.533H8.40485V586.425H9.72573V576.533H18.1306V575.12Z" fill="#F4F4F4"/>
<path d="M18.1306 645.774H9.72573V635.882H8.40485V645.774H0V647.187H8.40485V657.078H9.72573V647.187H18.1306V645.774Z" fill="#F4F4F4"/>
<path d="M18.1306 716.427H9.72573V706.536H8.40485V716.427H0V717.84H8.40485V727.732H9.72573V717.84H18.1306V716.427Z" fill="#F4F4F4"/>
<path d="M18.1306 787.081H9.72573V777.189H8.40485V787.081H0V788.494H8.40485V798.386H9.72573V788.494H18.1306V787.081Z" fill="#F4F4F4"/>
<path d="M18.1306 857.735H9.72573V847.843H8.40485V857.735H0V859.148H8.40485V869.039H9.72573V859.148H18.1306V857.735Z" fill="#F4F4F4"/>
<path d="M18.1306 928.388H9.72573V918.497H8.40485V928.388H0V929.801H8.40485V939.693H9.72573V929.801H18.1306V928.388Z" fill="#F4F4F4"/>
<path d="M18.1306 999.042H9.72573V989.15H8.40485V999.042H0V1000.45H8.40485V1010.35H9.72573V1000.45H18.1306V999.042Z" fill="#F4F4F4"/>
<path d="M18.1306 1069.7H9.72573V1059.8H8.40485V1069.7H0V1071.11H8.40485V1081H9.72573V1071.11H18.1306V1069.7Z" fill="#F4F4F4"/>
</g>
</svg>
