<svg width="228" height="200" viewBox="0 0 228 200" fill="none" xmlns="http://www.w3.org/2000/svg">
<path d="M227.453 91.4803C227.139 59.1549 208.096 47.9281 200.837 44.6142C198.95 38.5653 192.03 25.4512 166.383 12.4828C139.767 -0.993789 120.995 3.62715 114.146 6.26491C100.162 -2.42177 80.9737 -2.08259 59.7062 7.32987C57.988 8.10456 56.3914 8.90285 54.8675 9.75013L54.5046 9.96785L54.5029 9.96616C44.368 15.119 36.0762 23.2824 30.7678 33.3383C21.3147 35.6506 13.1205 41.529 7.90206 49.7434C3.26729 57.9241 1.56106 67.4413 3.06336 76.722C-0.928194 83.0613 -3.22709 95.9083 10.6128 109.12C21.4534 119.476 32.0506 121.92 38.9218 122.185C35.2442 140.79 45.624 147.687 52.6653 150.18C57.504 151.947 64.2317 152.164 72.0223 152.406C84.7008 152.816 99.217 153.228 105.968 161.14C117.317 174.109 118.574 195.184 118.574 195.378C118.69 197.963 120.824 200 123.413 199.999H141.826C144.14 200.053 146.169 198.459 146.665 196.2C148.18 189.033 148.336 181.646 147.125 174.424C157.482 176.456 170.572 175.199 183.903 170.77C199.145 165.714 202.533 153.228 202.121 145.147C209.26 139.92 227.77 123.25 227.454 91.4798L227.453 91.4803ZM161.93 21.1185C181.94 31.2569 188.546 40.9598 190.772 45.6283C188.266 47.0088 185.9 48.6291 183.707 50.4669C178.625 41.7816 166.963 27.4089 145.792 25.6906C134.918 24.7505 123.978 26.4534 113.901 30.6507C116.609 25.8288 118.204 20.4652 118.572 14.9477C124.162 12.8903 139.404 9.72057 161.929 21.118L161.93 21.1185ZM108.894 14.3912C108.555 20.1649 106.423 25.6876 102.797 30.1918C100.278 33.6737 98.6193 37.7042 97.9578 41.9505C97.946 42.0957 97.946 42.2408 97.9578 42.3859C97.3857 45.5893 96.9806 48.8198 96.7477 52.0633C96.1907 58.2812 95.6355 64.7181 92.9249 65.5166C91.6304 65.8271 90.2718 65.7191 89.043 65.2111C87.8127 64.7031 86.7747 63.8187 86.0776 62.6862C83.6574 59.3714 82.3038 53.0088 86.8034 46.0633C89.2743 42.2591 90.5046 37.7832 90.3274 33.2517C90.1502 28.7202 88.5721 24.3538 85.811 20.7555C83.141 16.9952 79.607 13.9336 75.5041 11.8273C88.5706 8.26951 100.135 9.09316 108.895 14.391L108.894 14.3912ZM17.2877 102.126C4.8507 90.3189 11.1407 81.8496 11.8428 80.9552C12.8572 79.767 13.2352 78.1637 12.8589 76.648C11.3078 69.1897 12.4471 61.4229 16.0774 54.7259C19.6335 48.8459 25.7548 44.7327 34.079 42.4341V42.4358C36.7727 43.2982 39.0274 45.1716 40.3694 47.6612C41.6268 50.5641 40.8538 54.5574 38.0943 59.5175C32.1197 70.1873 31.4665 80.6399 36.4977 89.1814C39.7298 94.5165 44.7441 98.5347 50.6531 100.528C47.0413 103.941 44.0809 107.983 41.9189 112.457C37.7079 112.82 27.9342 112.288 17.2877 102.126L17.2877 102.126ZM180.656 161.669C162.823 167.622 149.201 166.243 142.378 162.976L142.379 162.977C140.612 162.13 138.511 162.432 137.055 163.74C135.598 165.048 135.073 167.107 135.725 168.954C137.846 175.863 138.513 183.137 137.686 190.317H127.716C126.677 182.477 123.409 166.363 113.198 154.773L113.2 154.774C112.239 153.676 111.178 152.671 110.03 151.774C120.646 149.259 130.796 145.077 140.104 139.385C151.453 132.997 155.711 131.061 161.879 136.506C174.63 147.611 185.616 149.135 192.22 148.604C191.763 152.911 189.343 158.766 180.656 161.669L180.656 161.669ZM194.811 138.441C193.336 138.949 182.714 141.828 168.195 129.198C156.484 119.013 146.153 124.795 135.24 130.94C124.329 137.087 111.311 144.322 89.9944 144.007C84.0941 143.257 78.158 142.829 72.2106 142.724C65.6302 142.506 59.4361 142.312 55.9036 141.055C52.3711 139.797 43.8057 136.773 49.951 118.334C49.951 118.165 55.5156 100.913 80.9703 96.5589C86.7777 95.5918 93.0681 94.7446 99.0444 93.9209C126.047 90.3176 149.371 87.0264 154.163 73.3792C157.042 65.2257 153.896 60.4829 151.743 58.3783C145.21 51.8939 132.702 53.2964 123.991 56.4661V56.4678C121.48 57.3825 120.185 60.1606 121.1 62.6735C122.017 65.1849 124.795 66.4794 127.306 65.5647C135.412 62.6128 142.767 63.1444 144.945 65.2507C145.815 66.1216 145.839 67.671 144.945 70.0894C142.21 78.2192 117.555 81.6066 97.7413 84.3156C91.6687 85.1629 85.3532 86.0338 79.4006 87.0008V87.0025C73.1862 87.9696 67.161 89.9038 61.5442 92.736C54.0202 92.4221 47.8244 89.2998 44.8487 84.2434C41.8732 79.1869 42.3087 71.7338 46.5433 64.1609C50.7778 56.5881 51.7937 49.4975 49.2049 43.643C47.4496 39.8709 44.4975 36.784 40.8081 34.86C45.21 28.0247 51.3026 22.4416 58.496 18.6489C62.1196 17.9535 65.8679 18.308 69.2976 19.6717C72.7272 21.0337 75.6961 23.3493 77.853 26.3432C79.458 28.3905 80.3931 30.8816 80.5331 33.4809C80.6715 36.0784 80.0048 38.6558 78.6259 40.8615C72.6025 50.0545 72.4573 60.9188 78.1669 68.5405C81.1643 72.7953 86.005 75.374 91.2083 75.4855C92.6767 75.4838 94.1366 75.2627 95.5389 74.8323C104.54 72.1707 105.434 61.9598 106.234 53.0571C106.452 50.6368 106.693 48.2184 107.033 45.7979V45.7963C117.957 37.7205 131.505 34.0173 145.019 35.4167C164.762 36.9661 174.053 52.5473 176.909 58.3551C173.368 63.7762 172.018 70.3397 173.135 76.7196C173.539 79.128 174.195 81.4892 175.095 83.761C163.554 89.9788 129.292 107.763 112.523 108.174C104.925 108.369 66.9878 110.159 66.9878 126.853C66.9878 129.524 69.1549 131.691 71.8265 131.691C74.4999 131.691 76.6652 129.524 76.6652 126.853C76.6652 124.893 87.5295 118.481 112.765 117.852C131.831 117.393 167.736 98.7614 179.761 92.2282C184.745 98.8578 191.496 102.875 197.205 102.875C202.044 102.875 207.658 99.8266 208.94 91.4302H208.942C209.195 90.1373 208.91 88.799 208.154 87.7205C207.396 86.6437 206.233 85.9196 204.932 85.7188C203.631 85.518 202.302 85.8572 201.256 86.6555C200.21 87.4555 199.535 88.6454 199.384 89.9551C198.876 93.1736 197.715 93.1973 197.135 93.1973C193.07 93.1973 184.505 86.3499 182.616 75.1469H182.618C181.815 70.3285 183.168 65.4016 186.319 61.6703L186.488 61.4526C189.34 58.0653 192.889 55.3345 196.893 53.4442C201.949 55.5742 217.605 64.3574 217.87 91.5775C218.088 122.909 197.352 136.845 194.812 138.444L194.811 138.441Z" fill="white"/>
</svg>
