<svg width="164" height="567" viewBox="0 0 164 567" fill="none" xmlns="http://www.w3.org/2000/svg">
<path d="M139.223 447.89L137.766 446.702L136.49 448.083L120.17 465.763L118.761 467.29L120.341 468.64C129.267 476.269 133.75 485.752 133.75 497.04C133.75 507.695 130.016 516.691 123.709 523.019C117.402 529.346 108.407 533.12 97.67 533.12C86.9331 533.12 77.9383 529.346 71.6314 523.019C65.3236 516.691 61.59 507.695 61.59 497.04C61.59 485.749 66.076 476.259 74.843 468.629L76.3964 467.277L74.9996 465.763L58.6796 448.083L57.3965 446.693L55.9372 447.897C41.8047 459.557 34.13 477.333 34.13 498.4C34.13 536.46 60.5932 565 97.67 565C134.743 565 161.21 536.463 161.21 498.57C161.21 477.335 153.536 459.552 139.223 447.89ZM27.1121 392.632L30.48 395.789V391.173V370.432V369.734L30.0451 369.187L5.56511 338.417L2 333.936L2 339.663L2 368.223L2 369.089L2.63212 369.682L27.1121 392.632ZM159.17 155.765V153.759L157.164 153.765L38.1643 154.105L36.17 154.111V156.105L36.17 178.715V179.854L37.1497 180.435L108.222 222.588L37.1381 265.402L36.17 265.985V267.115L36.17 289.895V291.895H38.17H157.17H159.17V289.895V264.055V262.055H157.17H94.4361L145.629 230.914L146.59 230.329V229.205V216.795V215.658L145.613 215.077L93.0098 183.758L157.175 183.605L159.17 183.6V181.605V155.765ZM161.21 375.702C161.21 337.31 134.413 308.592 97.67 308.592C60.9269 308.592 34.13 337.31 34.13 375.702C34.13 414.273 61.1038 442.812 97.67 442.812C134.236 442.812 161.21 414.273 161.21 375.702ZM133.75 375.702C133.75 395.836 119.187 410.932 97.67 410.932C76.1525 410.932 61.59 395.836 61.59 375.702C61.59 355.569 76.1525 340.472 97.67 340.472C119.187 340.472 133.75 355.569 133.75 375.702ZM161.21 69.9017C161.21 31.5089 134.413 2.79169 97.67 2.79169C60.9269 2.79169 34.13 31.5089 34.13 69.9017C34.13 108.472 61.1038 137.012 97.67 137.012C134.236 137.012 161.21 108.472 161.21 69.9017ZM133.75 69.9017C133.75 90.0352 119.187 105.132 97.67 105.132C76.1525 105.132 61.59 90.0352 61.59 69.9017C61.59 49.7682 76.1525 34.6717 97.67 34.6717C119.187 34.6717 133.75 49.7682 133.75 69.9017Z" stroke="#3E338B" stroke-width="4"/>
</svg>
