<svg width="198" height="200" viewBox="0 0 198 200" fill="none" xmlns="http://www.w3.org/2000/svg">
<path d="M56.6399 51.9967L73.8064 70.4248C81.565 65.2849 91.3613 64.0237 100.284 67.2235L110.371 42.5887C101.06 34.7323 104.939 16.6926 119.779 16.6926C139.176 16.6926 138.788 46.0806 119.683 45.7885L108.917 71.9749C114.735 76.63 118.714 83.4196 119.877 90.8874L150.622 93.7004C151.786 73.14 177.197 64.0221 190.968 78.6679C205.614 94.1865 194.362 118.529 174.092 118.529C163.521 118.529 157.604 111.644 157.508 111.644C155.18 109.413 153.434 106.698 152.271 103.691L119.683 100.782C118.228 109.123 113.184 116.397 106.008 120.858L110.469 153.349C128.799 156.743 136.171 179.632 122.69 193.115C118.52 197.381 112.603 200 106.106 200C95.5348 200 89.6185 193.115 89.4241 193.115C76.3298 180.02 82.9253 157.908 100.578 153.642L96.6978 124.642C86.5148 126.873 76.2333 123.673 69.0558 116.591L68.8616 116.397L37.728 126.678C38.0184 147.433 7.66121 147.337 7.66121 127.067C7.66121 111.452 26.5737 107.185 34.5264 117.368L63.0412 107.96C58.3861 97.7766 59.7436 85.8455 66.533 77.1182L49.3664 58.5941C28.3195 72.3671 0 57.2366 0 31.9229C0 3.60211 34.3335 -10.6553 54.4078 9.32443C65.9483 20.865 66.9192 39.2931 56.6382 51.999L56.6399 51.9967ZM117.743 35.5089C126.473 37.5452 125.986 26.5854 119.779 26.5854C114.251 26.5854 113.863 33.8593 117.743 35.5089ZM104.456 81.1889C91.8487 68.5812 70.123 77.503 70.123 95.4463C70.123 100.974 72.4515 106.018 76.0393 109.606C76.0393 111.158 92.0427 122.02 104.456 109.606C112.507 101.555 112.119 88.2688 104.456 81.1889ZM183.794 85.3595C170.992 72.5573 151.691 91.9546 164.397 104.66C173.028 113.292 187.77 107.181 187.77 95.0581C187.77 91.3722 186.218 87.6861 183.794 85.3595H183.794ZM115.806 166.83C103.004 154.028 83.703 173.425 96.4088 186.131C105.04 194.763 119.782 188.652 119.782 176.529C119.782 172.843 118.231 169.157 115.806 166.83H115.806ZM27.4507 124.738C25.1222 118.822 15.0369 122.119 17.9465 129.491C20.2749 135.31 30.3602 132.012 27.4507 124.738ZM47.4304 16.3054C33.6573 2.53234 9.8957 12.329 9.8957 31.9204C9.8957 51.4153 33.6578 61.3084 47.4304 47.439C56.0618 38.9039 56.0618 24.9386 47.4304 16.3054Z" fill="#3E338B"/>
</svg>
