<svg width="167" height="200" viewBox="0 0 167 200" fill="none" xmlns="http://www.w3.org/2000/svg">
<path d="M83.2988 200C70.0148 200 34.5235 186.558 23.6734 153.375C13.2855 148.684 0 136.317 0 120.989C0 110.704 3.43335 101.6 9.49936 95.6385C5.24147 65.9119 10.6252 41.3096 25.1288 24.3416C38.5439 8.64685 59.204 0 83.297 0C106.878 0 127.108 8.42363 140.39 23.7266C155.115 40.7582 160.815 65.5698 156.924 95.7807C163.002 101.9 166.592 111.148 166.592 121.014C166.592 135.255 154.63 148.945 142.8 153.766C131.796 186.663 96.5028 199.999 83.2956 199.999L83.2988 200ZM83.2988 7.85934C61.5772 7.85934 43.0128 15.524 31.1163 29.4374C17.8055 45.015 13.1026 68.1912 17.5837 96.4628C17.7999 97.8356 17.2782 99.2196 16.2081 100.105C10.9806 104.455 7.8627 112.264 7.8627 120.989C7.8627 133.344 20.0335 143.68 28.2603 146.784V146.786C29.4266 147.231 30.3111 148.203 30.6446 149.406C39.4743 179.473 71.8877 192.192 83.2985 192.192C94.709 192.192 126.938 179.484 135.874 149.613C136.239 148.375 137.189 147.396 138.416 146.993C148.032 143.875 158.736 132.424 158.736 120.987C158.736 112.549 155.539 104.794 150.207 100.247C149.192 99.3672 148.698 98.0279 148.897 96.6983C152.985 67.8756 147.993 44.4658 134.486 28.8871C122.682 15.3267 104.523 7.85877 83.2997 7.85877L83.2988 7.85934ZM137.264 52.5204V52.5218C137.264 50.351 135.503 48.5903 133.332 48.5903C131.163 48.5903 129.402 50.3509 129.402 52.5218C129.388 65.644 124.172 78.2266 114.896 87.5095C105.621 96.7924 93.0428 102.02 79.9192 102.044C69.6176 102.039 59.739 97.9489 52.4511 90.6678C45.1632 83.3881 41.0628 73.5137 41.0489 63.2122C41.0558 55.1836 44.2478 47.4867 49.9247 41.8099C55.6001 36.1345 63.298 32.9413 71.3255 32.9341C77.5352 32.9383 83.4895 35.4035 87.8853 39.7881C92.2814 44.1742 94.7589 50.1243 94.7757 56.3325C94.7799 61.1036 92.8881 65.6812 89.5174 69.0558C86.1455 72.432 81.5724 74.3309 76.8013 74.3334C73.2005 74.3264 69.7491 72.8936 67.203 70.3476C64.6555 67.8002 63.2226 64.3486 63.2158 60.7479C63.2186 58.0735 64.2831 55.5093 66.1748 53.6189C68.0652 51.7272 70.6295 50.6641 73.3038 50.6599C75.4746 50.6599 77.2338 48.9007 77.2338 46.7299C77.2338 44.5591 75.4746 42.7998 73.3038 42.7998C68.5452 42.8068 63.9845 44.7 60.6194 48.0635C57.2545 51.4284 55.3612 55.9903 55.3544 60.7478C55.3656 66.4329 57.6284 71.8822 61.6477 75.9015C65.6684 79.9208 71.1163 82.1837 76.8013 82.1948C83.6553 82.1878 90.2279 79.4604 95.0715 74.6112C99.9151 69.7618 102.637 63.1882 102.637 56.3324C102.626 48.0331 99.3239 40.0766 93.4532 34.2091C87.5839 28.3412 79.6249 25.0419 71.3256 25.0347C61.2069 25.0445 51.5069 29.0722 44.3554 36.2305C37.2043 43.3888 33.1875 53.0931 33.1875 63.2118C33.2014 75.5976 38.1303 87.4712 46.8929 96.2267C55.654 104.981 67.5334 109.9 79.9192 109.903C95.1272 109.879 109.704 103.824 120.455 93.0666C131.205 82.3105 137.249 67.729 137.263 52.5199L137.264 52.5204ZM77.5238 56.0835V56.0849C75.4939 56.0849 73.6634 57.307 72.888 59.182C72.111 61.057 72.5406 63.2152 73.9748 64.6506C75.4104 66.0862 77.5684 66.5145 79.4434 65.7388C81.3184 64.9617 82.5406 63.1314 82.5406 61.1031C82.5406 58.331 80.2944 56.0848 77.5237 56.0848L77.5238 56.0835Z" fill="white"/>
</svg>
