<svg width="16" height="16" viewBox="0 0 16 16" fill="none" xmlns="http://www.w3.org/2000/svg">
<path d="M8 0C3.58871 0 0 3.58871 0 8C0 12.4113 3.58871 16 8 16C12.4113 16 16 12.4113 16 8C16 3.58871 12.4113 0 8 0ZM8 14.9333C4.1771 14.9333 1.06667 11.8229 1.06667 8C1.06667 4.17714 4.17714 1.06667 8 1.06667C11.8233 1.06667 14.9333 4.17714 14.9333 8C14.9333 11.8229 11.8232 14.9333 8 14.9333ZM8 2.66667C5.05914 2.66667 2.66667 5.05914 2.66667 8C2.66667 10.9409 5.05914 13.3333 8 13.3333C10.9409 13.3333 13.3333 10.9409 13.3333 8C13.3333 5.05914 10.9409 2.66667 8 2.66667ZM8 12.2667C5.64752 12.2667 3.73324 10.3526 3.73324 7.9999C3.73324 5.64743 5.64729 3.73314 8 3.73314C10.3525 3.73314 12.2668 5.64719 12.2668 7.9999C12.2668 10.3524 10.3525 12.2667 8 12.2667ZM8 5.33333C6.52957 5.33333 5.33333 6.52957 5.33333 8C5.33333 9.47043 6.52957 10.6667 8 10.6667C9.47043 10.6667 10.6667 9.47043 10.6667 8C10.6667 6.52957 9.47043 5.33333 8 5.33333ZM8 9.60009C7.11757 9.60009 6.39991 8.88248 6.39991 8C6.39991 7.11752 7.11752 6.3999 8 6.3999C8.88248 6.3999 9.60009 7.11752 9.60009 8C9.60009 8.88248 8.88248 9.60009 8 9.60009Z" fill="#F4F4F4"/>
</svg>
