<svg width="201" height="200" viewBox="0 0 201 200" fill="none" xmlns="http://www.w3.org/2000/svg">
<path d="M130 0.00390592C112.699 -0.0310977 96.0004 6.35492 83.1339 17.9228C70.269 29.4907 62.1543 45.4206 60.3586 62.6265C58.5627 79.8332 63.2136 97.0964 73.412 111.071L52.3579 132.125C46.363 131.117 40.2512 133.064 35.9441 137.351L5.53043 167.765C0.760833 172.536 -1.10189 179.488 0.64356 186.004C2.3892 192.521 7.47847 197.611 13.9955 199.356C20.5125 201.102 27.4643 199.239 32.2354 194.469L62.6491 164.056C66.9394 159.749 68.8875 153.634 67.88 147.637L88.9294 126.588C100.887 135.27 115.287 139.943 130.064 139.938C144.841 139.932 159.236 135.249 171.188 126.559C183.139 117.869 192.032 105.618 196.593 91.5612C201.152 77.5065 201.145 62.3679 196.571 48.3147C191.998 34.263 183.095 22.0207 171.134 13.341C159.175 4.66168 144.775 -0.00778244 129.999 9.73656e-06L130 0.00390592ZM56.2236 157.632L25.8111 188.046C23.3198 190.437 19.7554 191.339 16.427 190.424C13.0986 189.508 10.4976 186.907 9.58158 183.579C8.6669 180.251 9.56941 176.686 11.9603 174.195L42.374 143.781V143.783C44.1973 141.883 46.7084 140.798 49.3398 140.771C51.9727 140.745 54.5053 141.778 56.3664 143.64C58.2276 145.501 59.2611 148.033 59.2352 150.666C59.2078 153.298 58.1227 155.809 56.2234 157.632L56.2236 157.632ZM63.8514 138.818C63.127 137.78 62.226 136.879 61.1881 136.155L79.2472 118.1C80.1101 119.009 80.9974 119.896 81.906 120.759L63.8514 138.818ZM130.003 130.913C113.85 130.913 98.3564 124.497 86.9357 113.074C75.5124 101.652 69.0959 86.1586 69.0959 70.0061C69.0959 53.8537 75.5124 38.3594 86.9357 26.9387C98.3575 15.5154 113.851 9.09894 130.003 9.09894C146.156 9.09894 161.65 15.5154 173.071 26.9387C184.494 38.3605 190.91 53.8537 190.91 70.0061C190.887 86.1535 184.463 101.633 173.046 113.05C161.628 124.468 146.149 130.892 130.002 130.915L130.003 130.913Z" fill="#3E338B"/>
<path d="M130 17.2776C116.015 17.2776 102.604 22.8326 92.7162 32.7205C82.8283 42.6084 77.2733 56.0195 77.2733 70.0042C77.2733 83.9888 82.8283 97.3999 92.7162 107.288C102.604 117.176 116.015 122.731 130 122.731C143.984 122.731 157.396 117.176 167.284 107.288C177.171 97.3999 182.726 83.9888 182.726 70.0042C182.714 56.0238 177.155 42.6205 167.268 32.7357C157.384 22.8494 143.98 17.2897 130 17.2776ZM130 113.64C118.427 113.64 107.328 109.042 99.1448 100.858C90.9614 92.6751 86.3636 81.5759 86.3636 70.0034C86.3636 58.4308 90.9614 47.3316 99.1448 39.1483C107.328 30.9649 118.427 26.3672 130 26.3672C141.572 26.3672 152.672 30.9649 160.855 39.1483C169.038 47.3316 173.636 58.4308 173.636 70.0034C173.624 81.5728 169.023 92.6646 160.841 100.845C152.661 109.027 141.569 113.628 130 113.64Z" fill="#3E338B"/>
</svg>
