<svg width="16" height="14" viewBox="0 0 16 14" fill="none" xmlns="http://www.w3.org/2000/svg">
<path d="M4.4322 1.26647C4.41824 1.25055 4.40408 1.23478 4.38971 1.21916C3.92088 0.709507 3.28828 0.419336 2.60849 0.402116C1.20338 0.365864 0.0352606 1.51945 0.000779571 2.97106C-0.0211404 3.89386 0.420943 4.71948 1.10662 5.20771C0.947864 5.76925 0.873531 6.3534 0.889121 6.94659C0.739703 7.25806 -0.134272 9.23654 0.894112 10.922C1.8062 12.4168 3.92088 13.1965 7.1792 13.2396C7.26973 13.2408 7.35962 13.2414 7.44884 13.2414C9.3081 13.2414 10.8675 12.9817 12.0856 12.4686C13.2246 11.989 14.0745 11.2871 14.612 10.3808C15.5684 8.76919 15.3813 6.78697 14.7995 5.17823C14.9415 5.07812 15.0754 4.96341 15.1995 4.83487C15.7163 4.29954 16 3.58779 16 2.83117C16 1.26959 14.7715 0 13.2627 0H13.2609C12.5292 0 11.8419 0.295457 11.3251 0.830786C11.27 0.887846 11.2176 0.94691 11.1679 1.00782C11.1251 0.989956 11.082 0.972591 11.0387 0.955722C9.95961 0.535949 8.70589 0.407252 6.97261 0.538667C6.0976 0.604935 5.22807 0.858181 4.4322 1.26647Z" fill="#F4F4F4"/>
</svg>
