<svg width="261" height="75" viewBox="0 0 261 75" fill="none" xmlns="http://www.w3.org/2000/svg">
<path d="M139.691 32.18C139.691 34.324 139.195 36.276 138.203 38.036C137.211 39.764 135.739 41.14 133.787 42.164C131.867 43.188 129.531 43.7 126.779 43.7H122.555V54.5H111.899V20.516H126.779C130.939 20.516 134.123 21.572 136.331 23.684C138.571 25.796 139.691 28.628 139.691 32.18ZM125.579 35.3C127.787 35.3 128.891 34.26 128.891 32.18C128.891 30.1 127.787 29.06 125.579 29.06H122.555V35.3H125.579Z" fill="#1A1A1A"/>
<path d="M139.471 40.964C139.471 38.116 139.951 35.652 140.911 33.572C141.903 31.46 143.247 29.86 144.943 28.772C146.639 27.652 148.543 27.092 150.655 27.092C152.415 27.092 153.935 27.46 155.215 28.196C156.495 28.9 157.471 29.876 158.143 31.124V27.428H168.751V54.5H158.143V50.804C157.471 52.052 156.495 53.044 155.215 53.78C153.935 54.484 152.415 54.836 150.655 54.836C148.543 54.836 146.639 54.292 144.943 53.204C143.247 52.084 141.903 50.484 140.911 48.404C139.951 46.292 139.471 43.812 139.471 40.964ZM158.143 40.964C158.143 39.524 157.775 38.404 157.039 37.604C156.303 36.804 155.359 36.404 154.207 36.404C153.055 36.404 152.111 36.804 151.375 37.604C150.639 38.404 150.271 39.524 150.271 40.964C150.271 42.404 150.639 43.524 151.375 44.324C152.111 45.124 153.055 45.524 154.207 45.524C155.359 45.524 156.303 45.124 157.039 44.324C157.775 43.524 158.143 42.404 158.143 40.964Z" fill="#1A1A1A"/>
<path d="M190.336 27.236C193.44 27.236 195.856 28.276 197.584 30.356C199.344 32.436 200.224 35.252 200.224 38.804V54.5H189.616V40.148C189.616 38.868 189.264 37.86 188.56 37.124C187.888 36.356 186.976 35.972 185.824 35.972C184.64 35.972 183.712 36.356 183.04 37.124C182.368 37.86 182.032 38.868 182.032 40.148V54.5H171.376V27.428H182.032V31.556C182.864 30.276 183.968 29.236 185.344 28.436C186.752 27.636 188.416 27.236 190.336 27.236Z" fill="#1A1A1A"/>
<path d="M201.245 40.964C201.245 38.116 201.725 35.652 202.685 33.572C203.677 31.46 205.021 29.86 206.717 28.772C208.413 27.652 210.317 27.092 212.429 27.092C214.189 27.092 215.693 27.46 216.941 28.196C218.221 28.9 219.197 29.876 219.869 31.124V18.98H230.525V54.5H219.869V50.804C219.197 52.052 218.221 53.044 216.941 53.78C215.693 54.484 214.189 54.836 212.429 54.836C210.317 54.836 208.413 54.292 206.717 53.204C205.021 52.084 203.677 50.484 202.685 48.404C201.725 46.292 201.245 43.812 201.245 40.964ZM219.917 40.964C219.917 39.524 219.549 38.404 218.813 37.604C218.077 36.804 217.133 36.404 215.981 36.404C214.829 36.404 213.885 36.804 213.149 37.604C212.413 38.404 212.045 39.524 212.045 40.964C212.045 42.404 212.413 43.524 213.149 44.324C213.885 45.124 214.829 45.524 215.981 45.524C217.133 45.524 218.077 45.124 218.813 44.324C219.549 43.524 219.917 42.404 219.917 40.964Z" fill="#1A1A1A"/>
<path d="M231.71 40.964C231.71 38.116 232.19 35.652 233.15 33.572C234.142 31.46 235.486 29.86 237.182 28.772C238.878 27.652 240.782 27.092 242.894 27.092C244.654 27.092 246.174 27.46 247.454 28.196C248.734 28.9 249.71 29.876 250.382 31.124V27.428H260.99V54.5H250.382V50.804C249.71 52.052 248.734 53.044 247.454 53.78C246.174 54.484 244.654 54.836 242.894 54.836C240.782 54.836 238.878 54.292 237.182 53.204C235.486 52.084 234.142 50.484 233.15 48.404C232.19 46.292 231.71 43.812 231.71 40.964ZM250.382 40.964C250.382 39.524 250.014 38.404 249.278 37.604C248.542 36.804 247.598 36.404 246.446 36.404C245.294 36.404 244.35 36.804 243.614 37.604C242.878 38.404 242.51 39.524 242.51 40.964C242.51 42.404 242.878 43.524 243.614 44.324C244.35 45.124 245.294 45.524 246.446 45.524C247.598 45.524 248.542 45.124 249.278 44.324C250.014 43.524 250.382 42.404 250.382 40.964Z" fill="#1A1A1A"/>
<path d="M25.2286 7.17338C25.1492 7.08321 25.0686 6.99387 24.9868 6.90538C22.3182 4.01869 18.7173 2.37515 14.8479 2.27761C6.84989 2.07228 0.200829 8.60625 0.00455947 16.8283C-0.120211 22.0551 2.39617 26.7314 6.29909 29.4968C5.39545 32.6774 4.97234 35.9861 5.06108 39.3459C4.21058 41.1101 -0.764164 52.3163 5.08949 61.8628C10.2812 70.3295 22.3182 74.7459 40.8648 74.9897C41.3801 74.9966 41.8918 75 42.3997 75C52.9827 75 61.8588 73.5293 68.7928 70.6229C75.2757 67.9065 80.1136 63.9307 83.173 58.7973C88.6172 49.6692 87.5518 38.4418 84.2406 29.3298C85.0488 28.7628 85.811 28.1131 86.5173 27.385C89.4588 24.3529 91.0737 20.3214 91.0737 16.0359C91.0737 7.19105 84.0811 0 75.4926 0H75.4823C71.3176 0 67.4051 1.67349 64.4636 4.70562C64.1501 5.02881 63.8517 5.36336 63.5686 5.70836C63.3252 5.60717 63.08 5.50881 62.8332 5.41327C56.6912 3.03565 49.5549 2.3067 39.6889 3.05105C34.7082 3.42639 29.7588 4.86079 25.2286 7.17338Z" fill="#1A1A1A"/>
</svg>
