<svg width="200" height="200" viewBox="0 0 200 200" fill="none" xmlns="http://www.w3.org/2000/svg">
<path d="M92.4694 0H107.531C113.744 0 119.39 2.54106 123.473 6.62534C127.563 10.7153 130.104 16.3596 130.104 22.5677V69.8962H177.432C183.646 69.8962 189.285 72.4373 193.375 76.5271C197.465 80.6171 200 86.2614 200 92.4694V107.531C200 113.744 197.459 119.39 193.375 123.473C189.285 127.563 183.64 130.104 177.432 130.104H130.104V177.432C130.104 183.646 127.563 189.285 123.473 193.375C119.383 197.465 113.739 200 107.531 200H92.4694C86.2555 200 80.6098 197.459 76.5271 193.375C72.4371 189.285 69.8962 183.64 69.8962 177.432V130.104H22.5677C16.3538 130.104 10.7153 127.563 6.62534 123.473C2.53534 119.383 0 113.739 0 107.531V92.4694C0 86.2555 2.54106 80.6098 6.62534 76.5271C10.7153 72.4371 16.3596 69.8962 22.5677 69.8962H69.8962V22.5677C69.8962 16.3538 72.4373 10.7153 76.5271 6.62534C80.6171 2.53534 86.2613 0 92.4694 0V0ZM107.531 9.37424H92.4694C88.845 9.37424 85.5452 10.8618 83.1509 13.2492C80.7565 15.6436 79.269 18.9434 79.269 22.5677V74.5828C79.269 77.1723 77.1693 79.2719 74.5799 79.2719H22.5648C18.9404 79.2719 15.6406 80.7595 13.2463 83.1539C10.8519 85.5483 9.37132 88.8481 9.37132 92.4723V107.534C9.37132 111.158 10.8589 114.458 13.2463 116.852C15.6407 119.246 18.9405 120.734 22.5648 120.734H74.5799C77.1694 120.734 79.269 122.834 79.269 125.423V177.438C79.269 181.062 80.7566 184.362 83.1509 186.757C85.5453 189.151 88.8452 190.632 92.4694 190.632H107.531C111.155 190.632 114.455 189.144 116.849 186.757C119.243 184.362 120.731 181.062 120.731 177.438V125.423C120.731 122.834 122.831 120.734 125.42 120.734H177.435C181.06 120.734 184.359 119.246 186.754 116.852C189.148 114.458 190.629 111.158 190.629 107.534V92.4723C190.629 88.848 189.141 85.5482 186.754 83.1539C184.359 80.7594 181.059 79.2719 177.435 79.2719H125.42C122.831 79.2719 120.731 77.1722 120.731 74.5828V22.5677C120.731 18.9433 119.243 15.6435 116.849 13.2492C114.455 10.8548 111.155 9.37424 107.531 9.37424V9.37424Z" fill="white"/>
</svg>
