<svg width="188" height="817" viewBox="0 0 188 817" fill="none" xmlns="http://www.w3.org/2000/svg">
<path d="M36.0678 812.231V814.231H38.0678H156.712H158.712V812.231V784.773V782.773H156.712H126V760.875C126 744.701 121.805 731.322 114.013 721.948C106.185 712.532 94.8801 707.349 81.1186 707.349C67.2764 707.349 55.9293 712.529 48.0783 721.946C40.2623 731.321 36.0678 744.701 36.0678 760.875V812.231ZM158.712 439.998V436.164L155.567 438.358L119.398 463.597C112.191 448.8 98.8485 440.202 81.1186 440.202C67.2764 440.202 55.9293 445.381 48.0783 454.798C40.2623 464.173 36.0678 477.554 36.0678 493.727L36.0678 545.083V547.083H38.0678H156.712H158.712V545.083V517.625V515.625H156.712H125.661V493.419L157.85 471.134L158.712 470.538V469.49V439.998ZM153.564 254.812L151.838 256.256L153.475 257.8C159.047 263.054 161.661 268.983 161.661 275.667C161.661 280.2 160.265 284.229 156.185 288.75C147.037 264.396 124.94 248.074 97.3898 248.074C60.753 248.074 34.0339 276.708 34.0339 314.989C34.0339 353.447 60.9294 381.904 97.3898 381.904C130.431 381.904 155.676 358.541 160.129 325.442C169.574 316.439 176.032 308.734 180.131 301.011C184.331 293.098 186 285.267 186 276.176C186 262.57 180.68 250.8 170.693 242.596L169.412 241.543L168.14 242.608L153.564 254.812ZM38.0678 120.998H36.0678V122.998V150.116V152.116H38.0678H103.492C114.525 152.116 121.926 154.487 126.559 158.548C131.139 162.563 133.356 168.535 133.356 176.557C133.356 184.489 131.141 190.466 126.555 194.505C121.92 198.587 114.517 200.998 103.492 200.998H38.0678H36.0678V202.998V230.455V232.455H38.0678H104.508C122.344 232.455 136.47 227.34 146.136 217.652C155.801 207.965 160.746 193.968 160.746 176.726C160.746 159.485 155.801 145.488 146.136 135.801C136.47 126.113 122.344 120.998 104.508 120.998H38.0678ZM5.56511 13.7717L2 9.29059V15.0169L2 43.4915V44.3579L2.63212 44.9505L27.0389 67.8319L30.4068 70.9893V66.3729V45.6949V44.9963L29.9719 44.4497L5.56511 13.7717ZM132.678 4V66.5762H109.22V13.4915V11.4915H107.22H85.8644H83.8644V13.4915V66.5762H62.1017L62.1017 6.20337V4.20337H60.1017H38.0678H36.0678V6.20337L36.0678 95.8644V97.8644H38.0678H156.712H158.712V95.8644V4V2H156.712H134.678H132.678V4ZM99.6271 762.4V782.773H62.4407V762.4C62.4407 754.278 64.2906 748.493 67.4176 744.766C70.4973 741.097 75.0504 739.146 81.1186 739.146C87.0942 739.146 91.6057 741.091 94.6676 744.762C97.7774 748.49 99.6271 754.278 99.6271 762.4ZM160.746 630.634C160.746 592.353 134.027 563.719 97.3898 563.719C60.753 563.719 34.0339 592.353 34.0339 630.634C34.0339 669.092 60.9294 697.549 97.3898 697.549C133.85 697.549 160.746 669.092 160.746 630.634ZM133.356 630.634C133.356 650.704 118.84 665.753 97.3898 665.753C75.94 665.753 61.4237 650.704 61.4237 630.634C61.4237 610.564 75.94 595.515 97.3898 595.515C118.84 595.515 133.356 610.564 133.356 630.634ZM81.1186 471.998C87.0958 471.998 91.6548 473.945 94.7599 477.623C97.9089 481.353 99.7966 487.14 99.7966 495.253V515.625H62.4407V495.253C62.4407 487.13 64.2906 481.345 67.4176 477.619C70.4973 473.949 75.0504 471.998 81.1186 471.998ZM97.3898 350.108C75.94 350.108 61.4237 335.059 61.4237 314.989C61.4237 294.919 75.94 279.87 97.3898 279.87C118.84 279.87 133.356 294.919 133.356 314.989C133.356 335.059 118.84 350.108 97.3898 350.108Z" stroke="white" stroke-width="4"/>
</svg>
