<svg width="189" height="386" viewBox="0 0 189 386" fill="none" xmlns="http://www.w3.org/2000/svg">
<path d="M154.016 255.569L152.29 257.013L153.928 258.557C159.518 263.828 162.14 269.776 162.14 276.482C162.14 281.033 160.737 285.077 156.639 289.616C147.467 265.186 125.304 248.812 97.67 248.812C60.9269 248.812 34.13 277.529 34.13 315.922C34.13 354.492 61.1038 383.032 97.67 383.032C130.808 383.032 156.126 359.6 160.592 326.403C170.066 317.373 176.543 309.645 180.654 301.9C184.866 293.963 186.54 286.11 186.54 276.992C186.54 263.347 181.205 251.544 171.189 243.317L169.908 242.264L168.636 243.329L154.016 255.569ZM38.17 121.355H36.17V123.355V150.555V152.555H38.17H103.79C114.857 152.555 122.282 154.933 126.93 159.007C131.526 163.035 133.75 169.027 133.75 177.075C133.75 185.032 131.528 191.029 126.927 195.081C122.276 199.177 114.849 201.595 103.79 201.595H38.17H36.17V203.595L36.17 231.135V233.135H38.17H104.81C122.698 233.135 136.865 228.004 146.558 218.288C156.251 208.574 161.21 194.536 161.21 177.245C161.21 159.953 156.251 145.915 146.558 136.201C136.865 126.485 122.698 121.355 104.81 121.355H38.17ZM5.56511 13.8048L2 9.32367L2 15.05L2 43.61V44.4764L2.63212 45.0691L27.1121 68.0191L30.48 71.1765V66.56L30.48 45.82V45.1215L30.0451 44.5748L5.56511 13.8048ZM133.07 4V66.77H109.53L109.53 13.52V11.52H107.53H86.11H84.11V13.52L84.11 66.77H62.27V6.20999V4.20999H60.27H38.17H36.17V6.20999L36.17 96.14V98.14H38.17H157.17H159.17V96.14V4V2H157.17H135.07H133.07V4ZM97.67 351.152C76.1525 351.152 61.59 336.056 61.59 315.922C61.59 295.789 76.1525 280.692 97.67 280.692C119.187 280.692 133.75 295.789 133.75 315.922C133.75 336.056 119.187 351.152 97.67 351.152Z" stroke="#F4F4F4" stroke-width="4"/>
</svg>
