<svg width="200" height="200" viewBox="0 0 200 200" fill="none" xmlns="http://www.w3.org/2000/svg">
<path d="M100 0C44.8589 0 0 44.8589 0 100C0 155.141 44.8589 200 100 200C155.141 200 200 155.141 200 100C200 44.8589 155.141 0 100 0ZM100 186.667C52.2137 186.667 13.3333 147.786 13.3333 100C13.3333 52.2143 52.2143 13.3333 100 13.3333C147.791 13.3333 186.667 52.2143 186.667 100C186.667 147.786 147.79 186.667 100 186.667ZM100 33.3333C63.2393 33.3333 33.3333 63.2393 33.3333 100C33.3333 136.761 63.2393 166.667 100 166.667C136.761 166.667 166.667 136.761 166.667 100C166.667 63.2393 136.761 33.3333 100 33.3333ZM100 153.333C70.594 153.333 46.6655 129.408 46.6655 99.9988C46.6655 70.5928 70.5911 46.6643 100 46.6643C129.406 46.6643 153.335 70.5899 153.335 99.9988C153.335 129.405 129.407 153.333 100 153.333ZM100 66.6667C81.6196 66.6667 66.6667 81.6196 66.6667 100C66.6667 118.38 81.6196 133.333 100 133.333C118.38 133.333 133.333 118.38 133.333 100C133.333 81.6196 118.38 66.6667 100 66.6667ZM100 120.001C88.9696 120.001 79.9988 111.031 79.9988 100C79.9988 88.969 88.969 79.9988 100 79.9988C111.031 79.9988 120.001 88.969 120.001 100C120.001 111.031 111.031 120.001 100 120.001Z" fill="#3E338B"/>
</svg>
