<svg width="16" height="16" viewBox="0 0 16 16" fill="none" xmlns="http://www.w3.org/2000/svg">
<path d="M8 0C3.58871 0 0 3.58871 0 8C0 12.4113 3.58871 16 8 16C12.4113 16 16 12.4113 16 8C16 3.58871 12.4113 0 8 0ZM8 14.4C4.47128 14.4 1.59986 11.5289 1.59986 7.99986C1.59986 4.47114 4.47093 1.59971 8 1.59971C11.5287 1.59971 14.4001 4.47079 14.4001 7.99986C14.4001 11.5286 11.5288 14.4 8 14.4ZM8 4C5.79436 4 4 5.79436 4 8C4 10.2056 5.79436 12 8 12C10.2056 12 12 10.2056 12 8C12 5.79436 10.2056 4 8 4ZM8 10.4001C6.67636 10.4001 5.59986 9.32371 5.59986 8C5.59986 6.67629 6.67629 5.59986 8 5.59986C9.32371 5.59986 10.4001 6.67629 10.4001 8C10.4001 9.32371 9.32371 10.4001 8 10.4001Z" fill="#F4F4F4"/>
</svg>
